<svg version="1.1" id="Layer_1" xmlns="http://www.w3.org/2000/svg"
	xmlns:xlink="http://www.w3.org/1999/xlink" x="0px" y="0px"
	width="179.71px" height="102.899px" viewBox="0 0 179.71 102.899"
	enable-background="new 0 0 179.71 102.899"
	xml:space="preserve">
<path fill="#666" d="M160.496,34.35c0,0,2.217-1.901,2.299-2.735c0.087-0.832,0.044-2.409-0.587-3.191
	c-0.631-0.781-3.065-1.916-3.811-2.529c-0.744-0.611-2.73-1.995-3.697-2.698s-4.246-2.102-6.054-2.763
	c-1.809-0.661-3.193-1.189-4.266-1.112c-1.072,0.076-3.856,1.355-4.4,2.255c-0.547,0.902,0.065,0.157,0.065,0.157
	s-0.243-1.616,1.765-2.695c0,0-7.279,2.714-10.362,4.302c-3.083,1.586-12.169,6.155-13.854,7.712
	c-1.684,1.559-4.6,5.469-6.111,8.182c-1.512,2.714-3.023,5.426-4.334,7.443c-1.312,2.016-3.429,5.044-4.312,6.021
	c0,0,1.997-3.466,2.981-5.53c0.982-2.065,1.934-5.097,2.819-6.508s2.006-3.593,3.25-5.03c1.243-1.437,3.418-4.179,5.853-5.558
	c0,0-8.874,3.009-14.262,6.287c-5.388,3.279-8.732,5.712-11.942,12.32c-3.208,6.607-5.946,11.977-7.523,13.797
	c0,0,1.218-1.795,1.777-4.297c0.556-2.5,1.527-6.216,2.41-10.447c0.88-4.23,2.817-10.802,6.282-13.834c0,0-5.277,4.582-8.348,7.084
	c-3.071,2.503-6.123,5.057-7.624,10.158c-1.503,5.102-3.147,12.227-4.913,13.879c0,0,0.657-2.848,0.727-5.637
	c0.069-2.791,0.312-8.413,1.043-11.231c0.733-2.819,2.301-5.985,3.649-7.467c0,0-4.071,3.347-5.637,5.04
	c-1.568,1.694-5.017,6.684-7.089,8.342c-2.073,1.656-7.285,3.882-10.052,7.115c-2.768,3.235-5.139,10.232-7.229,11.406
	c-2.09,1.174-5.248,2.73-9.804,4.314c-4.556,1.585-8.26,2.568-11.85,3.816c-3.594,1.246-10.118,3.709-10.118,3.709l1.028,1.291
	c0,0,7.549-1.908,14.248-3.951c6.697-2.045,14.593-4.156,15.692-4.613c1.099-0.456,5.788,6.555,9.55,6.895
	c0,0-1.772-1.902-2.376-3.062c0,0,12.686,0.562,18.796-2.158c0,0-1.886-0.26-2.526-0.914c0,0,19.557-0.326,26.327-4.855
	c0,0-8.93-1.262-13.477-6.307c0,0,11.235,4.6,17.93,1.514c0,0-0.582-0.064-0.749-0.178c0,0,7.291-3.273,9.488-3.449
	c2.195-0.176,2.61-0.655,2.61-0.655s-2.256,0.323-3.182-0.273c0,0,5.855-1.265,8.222-3.842c0,0-3.34,1.265-4.878,1.104
	c-1.54-0.16-7.736-0.9-8.989-1.851c0,0,6.252,1.022,9.77,0.481c3.52-0.539,9.009-3.125,12.465-5.295c0,0-9.347,2.162-12.592,0.258
	c0,0,9.021,0.304,15.646-2.507c2.713-1.004,3.447-1.002,4.003-1.294c0,0-2.192-0.254-4.755,0.074
	c-2.564,0.328-5.991,0.645-6.796,0.181c0,0,2.667-0.37,5.388-0.764c2.721-0.392,4.681-0.838,7.205-1.702
	c2.526-0.865,3.892-1.861,6.077-2.215c0,0-2.228-0.488-3.391-0.188c0,0,7.4-3.01,10.459-4.955
	C151.489,39.253,159.057,35.745,160.496,34.35"/>
</svg>