<svg width="240" height="208" viewBox="0 0 240 208" fill="none" xmlns="http://www.w3.org/2000/svg">
<g clip-path="url(#clip0_1397_3832)">
<rect width="160" height="160" transform="translate(40 24)" fill="white"/>
<path fill-rule="evenodd" clip-rule="evenodd" d="M130.294 105.469C116.376 105.469 105.094 116.751 105.094 130.669V130.733C105.094 144.651 116.376 155.933 130.294 155.933H167.456C168.844 155.933 170.206 155.821 171.534 155.605L178.734 162.559C178.929 162.748 179.191 162.854 179.463 162.854C180.043 162.854 180.513 162.384 180.513 161.804L180.513 152.291C187.793 147.872 192.656 139.871 192.656 130.733V130.669C192.656 116.751 181.374 105.469 167.456 105.469H130.294Z" fill="#253368"/>
<path d="M136.406 45.0938H83.3438C63.4615 45.0938 47.3438 61.2115 47.3438 81.0938C47.3438 100.976 63.4615 117.094 83.3438 117.094H136.406C156.288 117.094 172.406 100.976 172.406 81.0938C172.406 61.2115 156.288 45.0938 136.406 45.0938Z" fill="#597EF7"/>
<path fill-rule="evenodd" clip-rule="evenodd" d="M64.6875 106.622V125.468C64.6875 126.297 65.3591 126.968 66.1875 126.968C66.576 126.968 66.9494 126.818 67.229 126.548L81.0782 113.185L64.6875 106.622Z" fill="#597EF7"/>
<path d="M85.7812 85.5938C88.9914 85.5938 91.5938 82.9914 91.5938 79.7812C91.5938 76.5711 88.9914 73.9688 85.7812 73.9688C82.5711 73.9688 79.9688 76.5711 79.9688 79.7812C79.9688 82.9914 82.5711 85.5938 85.7812 85.5938Z" fill="white"/>
<path d="M109.594 85.5938C112.804 85.5938 115.406 82.9914 115.406 79.7812C115.406 76.5711 112.804 73.9688 109.594 73.9688C106.384 73.9688 103.781 76.5711 103.781 79.7812C103.781 82.9914 106.384 85.5938 109.594 85.5938Z" fill="white"/>
<path d="M133.969 85.5938C137.179 85.5938 139.781 82.9914 139.781 79.7812C139.781 76.5711 137.179 73.9688 133.969 73.9688C130.759 73.9688 128.156 76.5711 128.156 79.7812C128.156 82.9914 130.759 85.5938 133.969 85.5938Z" fill="white"/>
</g>
<defs>
<clipPath id="clip0_1397_3832">
<rect width="160" height="160" fill="white" transform="translate(40 24)"/>
</clipPath>
</defs>
</svg>
