<svg width="240" height="208" viewBox="0 0 240 208" fill="none" xmlns="http://www.w3.org/2000/svg">
<g clip-path="url(#clip0_1404_24830)">
<rect width="160" height="160" transform="translate(40 24)" fill="white"/>
<path fill-rule="evenodd" clip-rule="evenodd" d="M183.949 56.8625H56.0938V45.4062C56.0938 42.9211 58.1086 40.9062 60.5938 40.9062H179.449C181.934 40.9062 183.949 42.9211 183.949 45.4062V56.8625Z" fill="#253368"/>
<path fill-rule="evenodd" clip-rule="evenodd" d="M179.449 167.168H60.5938C58.1086 167.168 56.0938 165.154 56.0938 162.668V55.5205H183.949V162.668C183.949 165.154 181.934 167.168 179.449 167.168Z" fill="#E4EBF7"/>
<path fill-rule="evenodd" clip-rule="evenodd" d="M66.4842 48.3319C66.4842 49.8916 65.2197 51.1561 63.6599 51.1561C62.1003 51.1561 60.8359 49.8916 60.8359 48.3319C60.8359 46.7723 62.1003 45.5078 63.6599 45.5078C65.2197 45.5078 66.4842 46.7723 66.4842 48.3319Z" fill="#FF7946"/>
<path fill-rule="evenodd" clip-rule="evenodd" d="M77.0309 48.3319C77.0309 49.8916 75.7666 51.1561 74.2067 51.1561C72.6471 51.1561 71.3828 49.8916 71.3828 48.3319C71.3828 46.7723 72.6471 45.5078 74.2067 45.5078C75.7666 45.5078 77.0309 46.7723 77.0309 48.3319Z" fill="#FAAD14"/>
<path fill-rule="evenodd" clip-rule="evenodd" d="M87.5778 48.3319C87.5778 49.8916 86.3134 51.1561 84.7536 51.1561C83.194 51.1561 81.9297 49.8916 81.9297 48.3319C81.9297 46.7723 83.194 45.5078 84.7536 45.5078C86.3134 45.5078 87.5778 46.7723 87.5778 48.3319Z" fill="#7CB305"/>
<path fill-rule="evenodd" clip-rule="evenodd" d="M69.912 151.982C69.1364 151.982 68.5078 151.353 68.5078 150.579V69.24C68.5078 68.4651 69.1364 67.8369 69.912 67.8369H171.526C172.302 67.8369 172.93 68.4651 172.93 69.24V150.579C172.93 151.353 172.302 151.982 171.526 151.982H69.912Z" fill="white"/>
<path fill-rule="evenodd" clip-rule="evenodd" d="M138.198 115.057C132.1 115.057 127.145 110.081 127.145 103.928C127.124 97.814 132.063 92.8408 138.177 92.8196C138.184 92.8196 138.191 92.8196 138.198 92.8196C144.292 92.8196 149.247 97.7949 149.247 103.945C149.237 110.081 144.292 115.053 138.198 115.057ZM165.698 100.057C165.483 98.8449 164.322 97.6044 163.11 97.3378L162.205 97.1298C160.01 96.464 158.151 94.9858 157.008 92.9962C155.854 90.9866 155.511 88.6115 156.052 86.3576L156.336 85.5054C156.7 84.3238 156.229 82.692 155.283 81.8848C155.283 81.8848 154.434 81.164 152.05 79.778C149.656 78.3991 148.63 78.0144 148.63 78.0144C147.466 77.5848 145.838 77.9971 144.985 78.9048L144.358 79.5806C142.701 81.1657 140.494 82.0462 138.201 82.0372C135.896 82.0436 133.677 81.1556 132.013 79.5598L131.41 78.9015C130.572 77.9938 128.933 77.5918 127.765 78.0144C127.765 78.0144 126.726 78.3991 124.335 79.778C121.941 81.1743 121.099 81.8951 121.099 81.8951C120.156 82.6953 119.685 84.3101 120.049 85.5054L120.309 86.3681C120.843 88.6188 120.502 90.9885 119.353 92.9962C118.212 95.0021 116.338 96.4873 114.124 97.1401L113.255 97.3378C112.063 97.6149 110.888 98.838 110.666 100.057C110.666 100.057 110.469 101.152 110.469 103.931C110.469 106.71 110.666 107.801 110.666 107.801C110.881 109.028 112.042 110.254 113.255 110.521L114.103 110.719C116.321 111.374 118.199 112.864 119.339 114.877C120.531 116.966 120.818 119.343 120.295 121.515L120.049 122.357C119.685 123.538 120.156 125.17 121.102 125.978C121.102 125.978 121.951 126.698 124.335 128.084C126.729 129.47 127.758 129.848 127.758 129.848C128.919 130.278 130.551 129.865 131.403 128.958L131.999 128.313C135.464 124.997 140.925 125.001 144.386 128.32L144.982 128.968C145.82 129.872 147.459 130.278 148.627 129.855C148.627 129.855 149.666 129.47 152.061 128.091C154.451 126.705 155.289 125.985 155.289 125.985C156.235 125.188 156.707 123.559 156.343 122.364L156.083 121.491C155.546 119.248 155.889 116.885 157.039 114.887C158.186 112.88 160.061 111.392 162.275 110.729L163.127 110.532C164.319 110.254 165.493 109.031 165.715 107.812C165.715 107.812 165.913 106.717 165.913 103.942C165.892 101.159 165.698 100.057 165.698 100.057Z" fill="#597EF7"/>
<path fill-rule="evenodd" clip-rule="evenodd" d="M99.9782 129.119C97.2634 130.662 93.7982 129.702 92.2405 126.962C90.6836 124.246 91.6234 120.781 94.3401 119.224L94.3493 119.219C97.0624 117.676 100.528 118.637 102.084 121.375C103.633 124.11 102.691 127.575 99.9782 129.119ZM108.424 115.48C108.021 114.995 107.191 114.736 106.583 114.924L106.128 115.061C104.982 115.32 103.781 115.133 102.768 114.536C101.746 113.934 100.992 112.963 100.662 111.823L100.573 111.372C100.436 110.754 99.8126 110.146 99.1873 110.026C99.1873 110.026 98.6269 109.92 97.215 109.907C95.8 109.899 95.2461 109.987 95.2461 109.987C94.6191 110.091 93.9983 110.686 93.8488 111.306L93.7404 111.766C93.4041 112.891 92.6445 113.842 91.6215 114.418C90.5966 115.004 89.3843 115.171 88.2396 114.881L87.8044 114.741C87.2012 114.549 86.37 114.785 85.9573 115.269C85.9573 115.269 85.5917 115.703 84.8766 116.922C84.1641 118.15 83.9717 118.684 83.9717 118.684C83.7549 119.279 83.9537 120.117 84.4183 120.557L84.7523 120.875C85.56 121.742 86.0076 122.883 86.0046 124.068C86.0042 125.25 85.5458 126.385 84.7256 127.236L84.3885 127.545C83.928 127.97 83.7148 128.811 83.9248 129.411C83.9248 129.411 84.1142 129.948 84.8175 131.185C85.521 132.422 85.8851 132.858 85.8851 132.858C86.2913 133.35 87.1183 133.602 87.7256 133.414L88.1537 133.287C89.3066 133.017 90.52 133.205 91.5368 133.812C92.5963 134.441 93.3259 135.426 93.643 136.526L93.7466 136.963C93.8837 137.581 94.5066 138.188 95.1321 138.308C95.1321 138.308 95.6925 138.414 97.1046 138.428C98.5211 138.439 99.075 138.346 99.075 138.346C99.7005 138.244 100.322 137.647 100.472 137.027L100.574 136.589C101.278 134.236 103.709 132.855 106.091 133.457L106.52 133.595C107.122 133.785 107.954 133.551 108.367 133.067C108.367 133.067 108.732 132.633 109.449 131.412C110.163 130.19 110.354 129.657 110.354 129.657C110.573 129.063 110.371 128.219 109.906 127.779L109.569 127.456C108.763 126.593 108.317 125.455 108.323 124.274C108.326 123.09 108.784 121.953 109.601 121.098L109.931 120.794C110.391 120.369 110.605 119.527 110.395 118.928C110.395 118.928 110.206 118.39 109.503 117.155C108.789 115.922 108.424 115.48 108.424 115.48Z" fill="#9254DC"/>
<path fill-rule="evenodd" clip-rule="evenodd" d="M95.4179 82.2528H79.877C78.8619 82.2528 78.0312 81.4222 78.0312 80.4071V80.2522C78.0312 79.2369 78.8619 78.4062 79.877 78.4062H95.4179C96.4331 78.4062 97.2637 79.2369 97.2637 80.2522V80.4071C97.2637 81.4222 96.4331 82.2528 95.4179 82.2528Z" fill="#ADC6FF"/>
<path fill-rule="evenodd" clip-rule="evenodd" d="M91.0708 91.2528H81.4546C80.3924 91.2528 79.5312 90.3918 79.5312 89.3296C79.5312 88.2674 80.3924 87.4062 81.4546 87.4062H91.0708C92.1329 87.4062 92.9939 88.2674 92.9939 89.3296C92.9939 90.3918 92.1329 91.2528 91.0708 91.2528Z" fill="#ADC6FF"/>
<path fill-rule="evenodd" clip-rule="evenodd" d="M173.031 138.442C162.765 138.442 154.442 146.765 154.442 157.031C154.442 167.298 162.765 175.62 173.031 175.62C183.298 175.62 191.62 167.298 191.62 157.031C191.62 146.765 183.298 138.442 173.031 138.442Z" fill="#8BBC06"/>
<path fill-rule="evenodd" clip-rule="evenodd" d="M170.036 163.346L168.862 162.172L180.235 150.758C180.624 150.369 181.254 150.369 181.643 150.758L182.113 151.228C182.501 151.617 182.501 152.247 182.113 152.636L171.444 163.346C171.055 163.735 170.425 163.735 170.036 163.346Z" fill="white"/>
<path fill-rule="evenodd" clip-rule="evenodd" d="M172.616 162.172L171.443 163.346C171.054 163.735 170.423 163.735 170.034 163.346L165.361 158.673C164.972 158.284 164.972 157.653 165.361 157.264L165.83 156.795C166.219 156.406 166.85 156.406 167.239 156.795L172.616 162.172Z" fill="white"/>
</g>
<defs>
<clipPath id="clip0_1404_24830">
<rect width="160" height="160" fill="white" transform="translate(40 24)"/>
</clipPath>
</defs>
</svg>
