<svg width="240" height="208" viewBox="0 0 240 208" fill="none" xmlns="http://www.w3.org/2000/svg">
<g clip-path="url(#clip0_1344_99238)">
<rect width="160" height="160" transform="translate(40 24)" fill="white"/>
<path d="M120 184C164.183 184 200 176.389 200 167C200 157.611 164.183 150 120 150C75.8172 150 40 157.611 40 167C40 176.389 75.8172 184 120 184Z" fill="#F5F5F7" fill-opacity="0.8"/>
<path fill-rule="evenodd" clip-rule="evenodd" d="M183.949 56.8624H56.0938V45.4062C56.0938 42.9211 58.1086 40.9062 60.5938 40.9062H179.449C181.934 40.9062 183.949 42.9211 183.949 45.4062V56.8624Z" fill="#253368"/>
<path fill-rule="evenodd" clip-rule="evenodd" d="M179.449 167.168H60.5938C58.1086 167.168 56.0938 165.154 56.0938 162.668V55.5206H183.949V162.668C183.949 165.154 181.934 167.168 179.449 167.168Z" fill="#E4EBF7"/>
<path fill-rule="evenodd" clip-rule="evenodd" d="M66.4842 48.3318C66.4842 49.8914 65.2197 51.1559 63.6599 51.1559C62.1002 51.1559 60.8359 49.8914 60.8359 48.3318C60.8359 46.7722 62.1002 45.5077 63.6599 45.5077C65.2197 45.5077 66.4842 46.7722 66.4842 48.3318Z" fill="#FF7946"/>
<path fill-rule="evenodd" clip-rule="evenodd" d="M77.0309 48.3318C77.0309 49.8914 75.7666 51.1559 74.2067 51.1559C72.6471 51.1559 71.3828 49.8914 71.3828 48.3318C71.3828 46.7722 72.6471 45.5077 74.2067 45.5077C75.7666 45.5077 77.0309 46.7722 77.0309 48.3318Z" fill="#FAAD14"/>
<path fill-rule="evenodd" clip-rule="evenodd" d="M87.5778 48.3318C87.5778 49.8914 86.3134 51.1559 84.7536 51.1559C83.194 51.1559 81.9297 49.8914 81.9297 48.3318C81.9297 46.7722 83.194 45.5077 84.7536 45.5077C86.3134 45.5077 87.5778 46.7722 87.5778 48.3318Z" fill="#7CB305"/>
<path fill-rule="evenodd" clip-rule="evenodd" d="M69.912 151.982C69.1364 151.982 68.5078 151.354 68.5078 150.579V69.2402C68.5078 68.4653 69.1364 67.8371 69.912 67.8371H171.526C172.302 67.8371 172.93 68.4653 172.93 69.2402V150.579C172.93 151.354 172.302 151.982 171.526 151.982H69.912Z" fill="white"/>
<path fill-rule="evenodd" clip-rule="evenodd" d="M122.936 143.094C104.557 143.094 89.6562 128.193 89.6562 109.812C89.6562 91.4316 104.557 76.5312 122.936 76.5312C141.317 76.5312 156.219 91.4316 156.219 109.812C156.219 128.193 141.317 143.094 122.936 143.094Z" fill="#E4EBF7"/>
<path fill-rule="evenodd" clip-rule="evenodd" d="M135.031 138.998H113.844V135.482C113.844 134.835 114.371 134.31 115.021 134.31H133.854C134.504 134.31 135.031 134.835 135.031 135.482V138.998Z" fill="#FF7946"/>
<path fill-rule="evenodd" clip-rule="evenodd" d="M139.665 143.123H109.022C108.371 143.123 107.844 142.598 107.844 141.951V139.607C107.844 138.961 108.371 138.435 109.022 138.435H139.665C140.316 138.435 140.844 138.961 140.844 139.607V141.951C140.844 142.598 140.316 143.123 139.665 143.123Z" fill="#FAAD14"/>
<path fill-rule="evenodd" clip-rule="evenodd" d="M104.731 78.4855H79.0083C77.9551 78.4855 77.0938 77.6239 77.0938 76.5709C77.0938 75.5177 77.9551 74.6564 79.0083 74.6564H104.731C105.784 74.6564 106.646 75.5177 106.646 76.5709C106.646 77.6239 105.784 78.4855 104.731 78.4855Z" fill="#E4EBF7"/>
<path fill-rule="evenodd" clip-rule="evenodd" d="M89.859 87.5152H80.2858C79.2285 87.5152 78.3711 86.658 78.3711 85.6007C78.3711 84.5432 79.2285 83.6861 80.2858 83.6861H89.859C90.9165 83.6861 91.7736 84.5432 91.7736 85.6007C91.7736 86.658 90.9165 87.5152 89.859 87.5152Z" fill="#E4EBF7"/>
<path d="M107 92V106.34L124.66 124L139 109.66L121.34 92H107ZM112 100C110.34 100 109 98.66 109 97C109 95.34 110.34 94 112 94C113.66 94 115 95.34 115 97C115 98.66 113.66 100 112 100Z" fill="#597EF7"/>
<path d="M141.82 106.82L124.16 89.16C123.42 88.42 122.4 88 121.34 88H107C104.8 88 103 89.8 103 92V106.34C103 107.4 103.42 108.42 104.18 109.16L121.84 126.82C123.4 128.38 125.94 128.38 127.5 126.82L141.84 112.48C143.4 110.92 143.4 108.4 141.82 106.82ZM124.66 124L107 106.34V92H121.34L139 109.66L124.66 124Z" fill="#597EF7"/>
</g>
<defs>
<clipPath id="clip0_1344_99238">
<rect width="160" height="160" fill="white" transform="translate(40 24)"/>
</clipPath>
</defs>
</svg>
