<svg width="160" height="160" viewBox="0 0 160 160" fill="none" xmlns="http://www.w3.org/2000/svg">
<g clip-path="url(#clip0_1885_23303)">
<rect width="160" height="160" fill="white"/>
<path opacity="0.163388" fill-rule="evenodd" clip-rule="evenodd" d="M147.912 92.0102H134.848C133.211 92.0102 131.871 90.6703 131.871 89.0327V75.9647C131.871 74.3271 133.211 72.9872 134.848 72.9872H147.912C149.549 72.9872 150.888 74.3271 150.888 75.9647V89.0327C150.888 90.6703 149.549 92.0102 147.912 92.0102Z" fill="#597EF7"/>
<path fill-rule="evenodd" clip-rule="evenodd" d="M19.2593 80.6935H13.4641C12.7335 80.6935 12.1357 80.0564 12.1357 79.278V73.0281C12.1357 72.2496 12.7335 71.6125 13.4641 71.6125H19.2593C19.9899 71.6125 20.5877 72.2496 20.5877 73.0281V79.278C20.5877 80.0564 19.9899 80.6935 19.2593 80.6935Z" fill="#FFC540"/>
<path fill-rule="evenodd" clip-rule="evenodd" d="M147.99 116.67C147.26 116.67 146.662 116.077 146.662 115.352V109.533C146.662 108.808 147.26 108.215 147.99 108.215H153.786C154.516 108.215 155.114 108.808 155.114 109.533V115.352C155.114 116.077 154.516 116.67 153.786 116.67H147.99Z" fill="#FF7A46"/>
<path opacity="0.49707" fill-rule="evenodd" clip-rule="evenodd" d="M8.55673 53.3485C6.60053 53.3485 5 51.748 5 49.7918V34.1817C5 32.2255 6.60053 30.625 8.55673 30.625H24.1668C26.123 30.625 27.7235 32.2255 27.7235 34.1817V49.7918C27.7235 51.748 26.123 53.3485 24.1668 53.3485H8.55673Z" fill="#ADC6FF"/>
<path fill-rule="evenodd" clip-rule="evenodd" d="M131.179 54.7921H32.2913V45.9314C32.2913 44.0093 33.8496 42.4509 35.7717 42.4509H127.698C129.621 42.4509 131.179 44.0093 131.179 45.9314V54.7921Z" fill="#253368"/>
<path fill-rule="evenodd" clip-rule="evenodd" d="M127.698 140.107H35.7717C33.8496 140.107 32.2913 138.549 32.2913 136.626V53.7542H131.179V136.626C131.179 138.549 129.621 140.107 127.698 140.107Z" fill="#E4EBF7"/>
<path fill-rule="evenodd" clip-rule="evenodd" d="M40.3276 48.1942C40.3276 49.4004 39.3495 50.3785 38.1431 50.3785C36.9369 50.3785 35.959 49.4004 35.959 48.1942C35.959 46.9879 36.9369 46.0099 38.1431 46.0099C39.3495 46.0099 40.3276 46.9879 40.3276 48.1942Z" fill="#FF7946"/>
<path fill-rule="evenodd" clip-rule="evenodd" d="M48.4846 48.1942C48.4846 49.4004 47.5068 50.3785 46.3003 50.3785C45.0941 50.3785 44.1162 49.4004 44.1162 48.1942C44.1162 46.9879 45.0941 46.0099 46.3003 46.0099C47.5068 46.0099 48.4846 46.9879 48.4846 48.1942Z" fill="#FAAD14"/>
<path fill-rule="evenodd" clip-rule="evenodd" d="M56.6421 48.1942C56.6421 49.4004 55.6642 50.3785 54.4578 50.3785C53.2516 50.3785 52.2737 49.4004 52.2737 48.1942C52.2737 46.9879 53.2516 46.0099 54.4578 46.0099C55.6642 46.0099 56.6421 46.9879 56.6421 48.1942Z" fill="#7CB305"/>
<path fill-rule="evenodd" clip-rule="evenodd" d="M42.9791 128.361C42.3792 128.361 41.8931 127.875 41.8931 127.276V64.3655C41.8931 63.7662 42.3792 63.2803 42.9791 63.2803H121.571C122.171 63.2803 122.657 63.7662 122.657 64.3655V127.276C122.657 127.875 122.171 128.361 121.571 128.361H42.9791Z" fill="white"/>
<path fill-rule="evenodd" clip-rule="evenodd" d="M69.9092 71.5162H50.0142C49.1997 71.5162 48.5334 70.8498 48.5334 70.0354C48.5334 69.2208 49.1997 68.5546 50.0142 68.5546H69.9092C70.7236 68.5546 71.39 69.2208 71.39 70.0354C71.39 70.8498 70.7236 71.5162 69.9092 71.5162Z" fill="#E4EBF7"/>
<path fill-rule="evenodd" clip-rule="evenodd" d="M58.4064 78.5H51.0022C50.1844 78.5 49.5212 77.837 49.5212 77.0192C49.5212 76.2013 50.1844 75.5385 51.0022 75.5385H58.4064C59.2244 75.5385 59.8872 76.2013 59.8872 77.0192C59.8872 77.837 59.2244 78.5 58.4064 78.5Z" fill="#E4EBF7"/>
<path fill-rule="evenodd" clip-rule="evenodd" d="M83.0508 103.171C80.722 103.171 78.83 101.277 78.83 98.934C78.8219 96.6061 80.7081 94.7125 83.0428 94.7045C83.0455 94.7045 83.0481 94.7044 83.0508 94.7044C85.3782 94.7044 87.2702 96.5988 87.2702 98.9406C87.2663 101.277 85.3782 103.17 83.0508 103.171ZM93.5526 97.4603C93.4705 96.9986 93.0273 96.5263 92.5641 96.4248L92.2188 96.3455C91.3804 96.092 90.6706 95.5291 90.2341 94.7717C89.7932 94.0065 89.6625 93.1021 89.8689 92.244L89.9774 91.9194C90.1163 91.4696 89.9365 90.8481 89.5752 90.5408C89.5752 90.5408 89.2511 90.2664 88.3408 89.7387C87.4264 89.2137 87.0347 89.0672 87.0347 89.0672C86.5901 88.9036 85.9683 89.0606 85.6428 89.4063L85.4034 89.6635C84.7706 90.2671 83.9278 90.6024 83.0522 90.599C82.1716 90.6013 81.3245 90.2632 80.689 89.6555L80.4588 89.4049C80.1386 89.0593 79.5127 88.9063 79.0669 89.0672C79.0669 89.0672 78.6699 89.2137 77.7569 89.7387C76.8427 90.2703 76.5212 90.5447 76.5212 90.5447C76.1612 90.8495 75.9812 91.4644 76.1202 91.9194L76.2194 92.2481C76.4235 93.1048 76.293 94.0072 75.8542 94.7717C75.4185 95.5353 74.7028 96.101 73.8576 96.3495L73.5256 96.4248C73.0704 96.5302 72.6219 96.9961 72.5371 97.4603C72.5371 97.4603 72.4617 97.8773 72.4617 98.9353C72.4617 99.9934 72.5371 100.409 72.5371 100.409C72.6192 100.876 73.0624 101.343 73.5256 101.445L73.8498 101.52C74.6966 101.769 75.4137 102.336 75.8489 103.103C76.3041 103.898 76.4139 104.803 76.2142 105.631L76.1202 105.951C75.9812 106.401 76.1612 107.022 76.5224 107.33C76.5224 107.33 76.8466 107.604 77.7569 108.132C78.6712 108.66 79.0642 108.803 79.0642 108.803C79.5074 108.967 80.1306 108.81 80.4562 108.464L80.6837 108.219C82.0068 106.956 84.0921 106.958 85.414 108.221L85.6415 108.468C85.9618 108.812 86.5876 108.967 87.0335 108.806C87.0335 108.806 87.4304 108.66 88.3447 108.135C89.2576 107.607 89.5779 107.332 89.5779 107.332C89.9391 107.029 90.119 106.409 89.9801 105.954L89.8808 105.621C89.6759 104.767 89.8066 103.868 90.2461 103.107C90.6839 102.343 91.3997 101.776 92.2453 101.524L92.5708 101.448C93.0259 101.343 93.4745 100.877 93.5592 100.413C93.5592 100.413 93.6345 99.996 93.6345 98.9392C93.6267 97.88 93.5526 97.4603 93.5526 97.4603Z" fill="#597EF7"/>
<path d="M86.2936 73.4232C86.9685 72.9771 87.8773 73.1625 88.3235 73.8374C88.7625 74.5016 88.5899 75.3924 87.941 75.8457L87.9092 75.8673L87.1712 76.355L87.3164 76.3825C97.6678 78.4134 105.506 87.4517 105.683 98.3518L105.686 98.7284C105.686 111.306 95.4856 121.501 82.9031 121.501C70.3208 121.501 60.1204 111.306 60.1204 98.7284C60.1204 89.6514 65.4829 81.5529 73.6332 77.92C74.3722 77.5907 75.2383 77.9227 75.5677 78.6617C75.897 79.4006 75.565 80.2667 74.826 80.5961C67.7227 83.7623 63.0502 90.8187 63.0502 98.7284C63.0502 109.687 71.9386 118.571 82.9031 118.571C93.8678 118.571 102.756 109.687 102.756 98.7284C102.756 87.7695 93.8678 78.8853 82.9031 78.8853C81.4653 78.8853 80.8952 77.0368 82.0595 76.2227L82.0953 76.1984L86.2936 73.4232Z" fill="#FF7946"/>
<path d="M81.8673 76.3647C82.4298 75.8022 83.3361 75.7928 83.9101 76.3366L83.939 76.3647L87.5645 79.9902C88.1366 80.5623 88.1366 81.4898 87.5645 82.0619C87.0019 82.6245 86.0957 82.6338 85.5217 82.09L85.4928 82.0619L81.8673 78.4364C81.2952 77.8643 81.2952 76.9368 81.8673 76.3647Z" fill="#FF7946"/>
<path d="M113.502 116.394C111.01 116.394 108.99 118.414 108.99 120.907C108.99 123.399 111.01 125.419 113.502 125.419C115.994 125.419 118.015 123.399 118.015 120.907C118.015 118.414 115.994 116.394 113.502 116.394ZM113.502 117.878C115.175 117.878 116.531 119.234 116.531 120.907C116.531 122.579 115.175 123.935 113.502 123.935C111.83 123.935 110.474 122.579 110.474 120.907C110.474 119.234 111.83 117.878 113.502 117.878Z" fill="#E4EBF7"/>
<path d="M116.571 118.619C116.953 118.472 117.382 118.662 117.53 119.044C117.753 119.623 117.869 120.251 117.869 120.897C117.869 121.425 117.791 121.943 117.64 122.431C117.519 122.822 117.104 123.041 116.712 122.92C116.321 122.799 116.102 122.384 116.223 121.992C116.33 121.646 116.386 121.277 116.386 120.897C116.386 120.459 116.312 120.036 116.171 119.646L116.146 119.578C115.998 119.196 116.189 118.766 116.571 118.619Z" fill="#597EF7"/>
<path fill-rule="evenodd" clip-rule="evenodd" d="M117.734 19.6509C103.864 19.6509 92.6196 30.8951 92.6196 44.7656C92.6196 58.6361 103.864 69.8804 117.734 69.8804C131.605 69.8804 142.849 58.6361 142.849 44.7656C142.849 30.8951 131.605 19.6509 117.734 19.6509Z" fill="#FAAD14"/>
<path fill-rule="evenodd" clip-rule="evenodd" d="M118.76 51.9413H117.863C117.12 51.9413 116.518 51.3389 116.518 50.5958V33.5537C116.518 32.8106 117.12 32.2083 117.863 32.2083H118.76C119.503 32.2083 120.105 32.8106 120.105 33.5537V50.5958C120.105 51.3389 119.503 51.9413 118.76 51.9413Z" fill="white"/>
<path fill-rule="evenodd" clip-rule="evenodd" d="M118.76 57.4566H117.863C117.12 57.4566 116.518 56.8542 116.518 56.1112V55.2142C116.518 54.4711 117.12 53.8688 117.863 53.8688H118.76C119.503 53.8688 120.105 54.4711 120.105 55.2142V56.1112C120.105 56.8542 119.503 57.4566 118.76 57.4566Z" fill="white"/>
</g>
<defs>
<clipPath id="clip0_1885_23303">
<rect width="160" height="160" fill="white"/>
</clipPath>
</defs>
</svg>
