<svg width="208" height="209" viewBox="0 0 208 209" fill="none" xmlns="http://www.w3.org/2000/svg">
<g clip-path="url(#clip0_823_57455)">
<rect width="160" height="160" transform="translate(24 24.5)" fill="white"/>
<g opacity="0.2">
<path fill-rule="evenodd" clip-rule="evenodd" d="M162.635 131.68C167.949 123.413 171.031 113.577 171.031 103.019C171.031 73.6317 146.988 49.7513 117.604 49.9453C88.6074 50.1366 65.1319 73.586 64.8944 102.575C64.6543 131.886 88.4095 155.962 117.718 156.094C128.174 156.141 137.93 153.16 146.165 147.983L163.423 153.617C166.544 154.636 169.486 151.648 168.421 148.543L162.635 131.68Z" fill="#A3B5D6"/>
<path fill-rule="evenodd" clip-rule="evenodd" d="M41.8624 144.81C38.7862 140.024 37.0015 134.329 37.0015 128.217C37.0015 111.203 50.9214 97.3774 67.9329 97.4897C84.7205 97.6005 98.3116 111.176 98.4492 127.96C98.5881 144.929 84.8351 158.868 67.8669 158.944C61.8134 158.971 56.1655 157.246 51.398 154.248L41.4064 157.51C39.5994 158.1 37.8959 156.37 38.5129 154.572L41.8624 144.81Z" fill="#E4EBF7"/>
<path d="M48.114 100.286C52.7473 100.286 56.5033 96.5295 56.5033 91.8956C56.5033 87.2618 52.7473 83.5054 48.114 83.5054C43.4807 83.5054 39.7246 87.2618 39.7246 91.8956C39.7246 96.5295 43.4807 100.286 48.114 100.286Z" fill="#A3B5D6"/>
</g>
<rect x="124" y="36.5" width="48" height="48" rx="24" fill="url(#paint0_linear_823_57455)"/>
<path d="M143.168 51.2975C143.154 53.947 145.291 56.1061 147.94 56.12C150.59 56.1339 152.749 53.9973 152.763 51.3477C152.777 48.6982 150.64 46.539 147.991 46.5252C145.341 46.5113 143.182 48.6479 143.168 51.2975Z" fill="white"/>
<path d="M133.474 54.0407C133.46 56.0278 135.06 57.65 137.047 57.6639C139.034 57.6777 140.656 56.0781 140.67 54.0909C140.684 52.1038 139.084 50.4817 137.097 50.4678C135.11 50.4539 133.488 52.0536 133.474 54.0407Z" fill="white"/>
<path d="M155.217 54.0407C155.203 56.0278 156.803 57.65 158.79 57.6639C160.777 57.6777 162.399 56.0781 162.413 54.0909C162.427 52.1038 160.828 50.4817 158.84 50.4678C156.853 50.4539 155.231 52.0536 155.217 54.0407Z" fill="white"/>
<path d="M141.181 71.68C140.776 71.68 140.375 71.6002 140 71.4451C139.626 71.2901 139.286 71.0628 138.999 70.7763C138.713 70.4898 138.486 70.1497 138.331 69.7753C138.176 69.401 138.096 68.9998 138.096 68.5946V67.2003C138.096 65.058 138.966 63.0034 140.514 61.4885C142.063 59.9736 144.163 59.1226 146.353 59.1226H149.532C151.722 59.1226 153.822 59.9736 155.371 61.4885C156.919 63.0034 157.789 65.058 157.789 67.2003V68.5946C157.789 69.4129 157.464 70.1977 156.886 70.7763C156.307 71.3549 155.522 71.68 154.704 71.68H141.181Z" fill="white"/>
<path d="M137 60.1518C137.08 60.1645 137.155 60.1967 137.22 60.2456C137.284 60.2945 137.336 60.3585 137.37 60.4321C137.404 60.5057 137.419 60.5865 137.414 60.6673C137.409 60.7481 137.384 60.8265 137.342 60.8954C135.471 63.9358 135.612 66.2326 135.3 69.6178C135.292 69.7238 135.235 69.7847 135.129 69.8007C126.304 71.0811 130.157 59.0334 137 60.1518Z" fill="white"/>
<path d="M159.173 60.2024C165.898 58.8951 169.562 71.2636 161.008 69.8094C160.912 69.7934 160.844 69.7414 160.804 69.6535C160.64 69.2817 160.57 68.9489 160.594 68.655C160.798 65.9444 160.194 63.4188 158.783 61.078C158.493 60.6002 158.623 60.3084 159.173 60.2024Z" fill="white"/>
<path fill-rule="evenodd" clip-rule="evenodd" d="M89.2029 63.7984C89.2029 63.7984 96.961 64.8586 97.1359 69.2813C97.2259 71.5559 95.0767 74.0901 96.1706 74.7542C100.446 77.3508 95.9066 78.5974 98.6304 80.7033C102.682 83.836 100.412 89.444 96.2137 89.1967C91.8642 88.9407 94.1093 95.0373 86.5882 93.4908C82.3492 92.6192 81.0956 91.7253 78.0648 90.3206C75.0344 88.9158 72.9798 81.1603 76.5493 77.2187C78.7668 74.7252 80.9588 74.9013 82.1154 70.8238C83.2721 66.7465 84.4255 64.2352 86.4367 64.5103C87.1366 63.4451 89.2029 63.7984 89.2029 63.7984Z" fill="#253368"/>
<path fill-rule="evenodd" clip-rule="evenodd" d="M93.9862 73.2517C94.0047 73.1661 94.1233 73.1576 94.1541 73.2399C94.4239 73.9674 95.0769 75.9335 94.3017 76.0516C93.4272 76.1849 93.8166 74.0351 93.9862 73.2517Z" fill="white"/>
<path fill-rule="evenodd" clip-rule="evenodd" d="M87.0198 79.4818C87.7598 76.0187 87.8603 74.6382 87.8603 74.6382L92.0954 76.4147L91.8488 80.1583C91.7579 81.5364 90.5445 82.5656 89.1699 82.4306C87.7164 82.2876 86.7145 80.9101 87.0198 79.4818Z" fill="#F4B784"/>
<path fill-rule="evenodd" clip-rule="evenodd" d="M89.0886 68.4919C89.0886 68.4919 89.5319 67.0906 90.5098 67.7041C91.2088 68.1427 91.0078 67.7618 91.1391 67.3833C91.6257 65.9779 92.0786 69.1856 94.2979 69.7739C94.4297 71.4951 94.7725 77.7242 91.0389 77.5868C89.833 77.5426 87.7951 76.9511 86.9347 74.8927C86.4147 73.649 86.7229 72.3274 87.2168 72.0427C88.8437 71.1043 88.7643 70.2336 89.0886 68.4919Z" fill="#FFC999"/>
<path d="M92.2484 69.8531C92.3028 69.8659 92.3386 69.9162 92.3348 69.9701L92.3321 69.9882L92.1247 70.8685L92.1401 71.0246L92.1543 71.1535C92.1673 71.2658 92.1829 71.3904 92.2016 71.5268C92.2765 72.0728 92.3834 72.6929 92.528 73.3751C92.5391 73.4272 92.512 73.48 92.4632 73.5013C92.2095 73.6125 91.9502 73.6833 91.6977 73.7218C91.5566 73.7433 91.4402 73.7519 91.3572 73.7528L91.3237 73.7527C91.2616 73.7513 91.2125 73.6999 91.2139 73.6378C91.2152 73.582 91.257 73.5366 91.3105 73.5291L91.3288 73.5281H91.3559L91.4164 73.5261C91.4828 73.5226 91.5665 73.5145 91.6638 73.4997C91.8394 73.4729 92.0186 73.4292 92.1962 73.3657L92.289 73.3304L92.2752 73.2641C92.1568 72.6904 92.0652 72.1619 91.997 71.6858L91.979 71.5573C91.9563 71.3917 91.938 71.243 91.9235 71.1121L91.9067 70.9504L91.8994 70.8684L91.9021 70.8341L92.1133 69.9367C92.1261 69.8824 92.1764 69.8466 92.2304 69.8504L92.2484 69.8531Z" fill="#DD936F"/>
<path d="M89.8624 73.7518C89.892 73.6734 89.9795 73.6338 90.0579 73.6634L90.159 73.6992C90.1775 73.7055 90.1979 73.7123 90.22 73.7196C90.3501 73.7625 90.4935 73.8055 90.6458 73.8455C90.965 73.9295 91.2789 73.9893 91.5707 74.0145C91.8048 74.0347 92.0167 74.0317 92.2004 74.0029C92.2832 73.9899 92.3608 74.0465 92.3738 74.1293C92.3868 74.2121 92.3302 74.2898 92.2474 74.3027C92.0371 74.3357 91.8015 74.339 91.5446 74.3168C91.2336 74.29 90.9033 74.2271 90.5686 74.139C90.41 74.0973 90.2607 74.0526 90.125 74.0079L90.0074 73.9679C89.9838 73.9596 89.9648 73.9527 89.9507 73.9473C89.8723 73.9177 89.8328 73.8302 89.8624 73.7518Z" fill="#C44343"/>
<path d="M92.1685 69.6793C93.0064 69.3733 93.6439 69.3092 94.0858 69.3861C94.1486 69.3971 94.1927 69.4087 94.2184 69.4177C94.2947 69.4446 94.3347 69.5283 94.3078 69.6046C94.2832 69.6745 94.2108 69.714 94.1402 69.6994L94.1045 69.6892C94.0896 69.6853 94.0666 69.6802 94.0355 69.6748C93.6454 69.6068 93.0597 69.6657 92.269 69.9545C92.1931 69.9823 92.109 69.9432 92.0812 69.8672C92.0534 69.7912 92.0925 69.7071 92.1685 69.6793Z" fill="#253368"/>
<path d="M88.9455 69.4283C89.3941 69.3866 89.8767 69.3913 90.3332 69.4748C90.563 69.5168 90.7758 69.5778 90.968 69.66C91.0424 69.6918 91.077 69.7779 91.0452 69.8523C91.0134 69.9266 90.9273 69.9612 90.8529 69.9294C90.682 69.8563 90.49 69.8013 90.2805 69.763C89.8543 69.685 89.3968 69.6806 88.9726 69.72L88.8775 69.7297C88.8312 69.7349 88.7961 69.7396 88.7737 69.7431C88.6937 69.7556 88.6188 69.701 88.6063 69.621C88.5938 69.5411 88.6484 69.4662 88.7283 69.4537L88.7875 69.4455L88.8618 69.4367C88.8881 69.4338 88.9161 69.431 88.9455 69.4283Z" fill="#253368"/>
<path d="M91.3327 74.8975C91.3948 74.896 91.4463 74.945 91.4478 75.0071C91.4492 75.0629 91.4096 75.1102 91.3564 75.1202L91.3383 75.1221L90.9325 75.1321C90.8705 75.1336 90.8189 75.0846 90.8174 75.0225C90.816 74.9667 90.8556 74.9194 90.9088 74.9094L90.927 74.9075L91.3327 74.8975Z" fill="#DD936F"/>
<path fill-rule="evenodd" clip-rule="evenodd" d="M84.6917 73.0164C84.326 71.5718 85.7285 71.6073 85.7285 71.6073C85.7285 71.6073 85.8111 73.0577 86.2409 74.3409C84.837 74.3518 84.6917 73.0164 84.6917 73.0164Z" fill="#FFC999"/>
<path fill-rule="evenodd" clip-rule="evenodd" d="M85.5204 74.0074C85.5389 73.9215 85.6575 73.9133 85.6883 73.9957C85.9581 74.7231 86.6111 76.6889 85.8359 76.8073C84.9614 76.9406 85.3508 74.7908 85.5204 74.0074Z" fill="white"/>
<path d="M92.6891 71.3594C92.77 71.3613 92.8341 71.4283 92.8322 71.5092C92.826 71.7826 92.9715 71.9928 93.1304 71.9963C93.2894 72 93.4445 71.7968 93.4508 71.5233C93.4526 71.4424 93.5197 71.3784 93.6005 71.3802C93.6814 71.3821 93.7455 71.4491 93.7436 71.53C93.7341 71.9488 93.4683 72.2972 93.1237 72.2892C92.7793 72.2816 92.5298 71.9213 92.5393 71.5025C92.5412 71.4216 92.6082 71.3576 92.6891 71.3594Z" fill="#253368"/>
<path d="M89.3825 71.398C89.4634 71.3998 89.5274 71.4669 89.5256 71.5478C89.5193 71.8212 89.6648 72.0312 89.8238 72.0349C89.9828 72.0386 90.1379 71.8353 90.1441 71.5619C90.146 71.481 90.213 71.4169 90.2939 71.4188C90.3748 71.4206 90.4389 71.4877 90.437 71.5686C90.4274 71.9874 90.1616 72.3358 89.8169 72.3278C89.4725 72.3198 89.2231 71.9597 89.2327 71.5411C89.2345 71.4602 89.3016 71.3961 89.3825 71.398Z" fill="#253368"/>
<path fill-rule="evenodd" clip-rule="evenodd" d="M107.29 96.1992C107.29 96.1992 101.602 86.9288 100.322 85.3221C97.2311 81.4415 94.1203 82.4112 93.4741 85.1669C92.6953 88.4891 103.414 99.4971 103.414 99.4971C103.414 99.4971 104.731 101.084 106.7 99.9129C109.027 98.5289 107.29 96.1992 107.29 96.1992Z" fill="#FFC999"/>
<path fill-rule="evenodd" clip-rule="evenodd" d="M103.581 89.8468C102.982 89.0113 98.7358 80.8726 95.4056 82.9896C92.5843 84.7831 93.2449 87.6554 97.9465 93.3671L103.581 89.8468Z" fill="#597EF7"/>
<path fill-rule="evenodd" clip-rule="evenodd" d="M114.222 82.3678C110.906 92.1184 110.375 94.6532 108.769 97.6523C106.102 102.632 102.137 100.11 103.177 97.1452C103.83 95.2848 105.963 91.9699 107.509 88.9306C109.689 84.6468 111.412 81.5847 111.412 81.5847L114.222 82.3678Z" fill="#FFC999"/>
<path d="M105.372 92.9934C105.403 92.9397 105.472 92.9213 105.526 92.9523C105.574 92.9803 105.594 93.0387 105.575 93.0893L105.567 93.1058L103.846 96.0836C103.815 96.1373 103.747 96.1557 103.693 96.1247C103.645 96.0967 103.625 96.0383 103.644 95.9877L103.652 95.9712L105.372 92.9934Z" fill="#DD936F"/>
<path fill-rule="evenodd" clip-rule="evenodd" d="M111.355 81.7095L113.317 76.1528C113.317 76.1528 116.232 71.7287 117.161 72.0712C118.016 72.5124 115.944 73.6998 115.467 74.9718C116.308 74.9654 115.849 76.1865 115.849 76.1865C115.849 76.1865 116.517 76.2046 116.273 77.2081C116.868 77.6138 116.298 78.7467 116.298 78.7467C116.298 78.7467 114.859 81.735 113.351 83.6932C113.351 83.6932 110.953 85.3125 111.355 81.7095Z" fill="#FFC999"/>
<path fill-rule="evenodd" clip-rule="evenodd" d="M111.833 79.8203C111.833 79.8203 112.195 77.8949 112.437 76.9175C112.679 75.9402 112.375 74.1282 113.065 74.6473C113.53 74.9963 113.378 76.053 113.311 76.8352C113.243 77.6172 114.39 79.5543 113.365 80.7795C112.673 81.6071 111.662 81.6572 111.833 79.8203Z" fill="#FFC999"/>
<path d="M115.391 74.8895C115.436 74.8474 115.507 74.8501 115.549 74.8957C115.591 74.9412 115.589 75.0123 115.543 75.0544L115.492 75.1031C115.451 75.143 115.404 75.1886 115.355 75.2391C115.212 75.3835 115.07 75.538 114.938 75.6961C114.803 75.8573 114.685 76.0132 114.591 76.16C114.3 76.6144 114.268 76.9079 114.516 77.0307C114.572 77.0582 114.595 77.1256 114.567 77.1812C114.54 77.2368 114.473 77.2597 114.417 77.2322C114 77.0261 114.048 76.5916 114.402 76.0388C114.502 75.8831 114.625 75.7198 114.765 75.5518C114.902 75.3886 115.048 75.2298 115.195 75.0814L115.268 75.0073L115.374 74.9047C115.381 74.8983 115.386 74.8933 115.391 74.8895Z" fill="#DD936F"/>
<path d="M115.86 76.1565C115.895 76.2081 115.881 76.2779 115.83 76.3124L115.777 76.3486C115.735 76.3783 115.687 76.4124 115.636 76.4502C115.49 76.5583 115.344 76.6746 115.208 76.7943C115.05 76.9337 114.917 77.0684 114.815 77.1942C114.591 77.4732 114.556 77.6575 114.706 77.7637C114.787 77.8205 114.884 77.8302 115.003 77.7963C115.13 77.76 115.273 77.6759 115.419 77.5582C115.492 77.4992 115.561 77.4357 115.624 77.3723L115.692 77.3005C115.696 77.2963 115.699 77.2926 115.702 77.2895C115.743 77.2426 115.814 77.2376 115.861 77.2782C115.908 77.3189 115.913 77.3899 115.872 77.4367L115.845 77.4662C115.829 77.4838 115.808 77.5055 115.784 77.5305C115.715 77.5995 115.64 77.6685 115.56 77.7331C115.392 77.8681 115.226 77.9664 115.065 78.0124C114.885 78.0636 114.718 78.0469 114.577 77.9474C114.284 77.7411 114.345 77.4197 114.64 77.0532C114.751 76.9163 114.893 76.7729 115.06 76.6258C115.201 76.5014 115.352 76.3813 115.502 76.2697L115.579 76.214L115.705 76.1257C115.756 76.0912 115.826 76.105 115.86 76.1565Z" fill="#DD936F"/>
<path d="M116.035 77.156C116.096 77.1503 116.151 77.1957 116.157 77.2575C116.163 77.3193 116.117 77.374 116.055 77.3797C115.923 77.392 115.746 77.5007 115.527 77.7274C115.069 78.2021 114.961 78.5151 115.076 78.5922C115.197 78.674 115.515 78.553 115.732 78.2809C115.819 78.1718 115.988 78.2878 115.917 78.408C115.67 78.8272 115.394 79.1334 115.073 79.3673L114.988 79.4278C114.826 79.5406 114.695 79.6099 114.405 79.7425L114.185 79.8415C113.506 80.1456 113.241 80.3968 113.056 81.0877C113.04 81.1476 112.978 81.1832 112.918 81.1671C112.858 81.1511 112.823 81.0895 112.839 81.0295C113.038 80.2846 113.341 79.9825 114.033 79.6638L114.351 79.5198C114.645 79.3848 114.756 79.3202 114.941 79.1858C115.078 79.0851 115.208 78.9697 115.33 78.8354L115.349 78.8135L115.324 78.8205C115.194 78.853 115.071 78.8468 114.976 78.7941L114.95 78.7785C114.666 78.5871 114.821 78.135 115.366 77.5713C115.619 77.3096 115.839 77.1742 116.035 77.156Z" fill="#DD936F"/>
<path d="M113.392 75.7451C113.448 75.7441 113.495 75.7839 113.505 75.8371L113.507 75.8553L113.535 77.3287L113.564 77.3874L113.585 77.4347C113.632 77.5365 113.678 77.65 113.721 77.7726C113.852 78.1447 113.927 78.5189 113.918 78.8718C113.91 79.1905 113.833 79.4758 113.674 79.717C113.64 79.7688 113.57 79.7832 113.518 79.7491C113.466 79.7149 113.452 79.6453 113.486 79.5934C113.62 79.3901 113.687 79.1453 113.694 78.8661C113.702 78.5443 113.631 78.1956 113.509 77.8471C113.468 77.7311 113.424 77.6236 113.381 77.5276L113.347 77.4549C113.337 77.4351 113.33 77.4199 113.324 77.4096C113.319 77.3992 113.315 77.388 113.313 77.3765L113.311 77.359L113.282 75.8596C113.281 75.7976 113.33 75.7463 113.392 75.7451Z" fill="#DD936F"/>
<path fill-rule="evenodd" clip-rule="evenodd" d="M92.6275 145.716C92.6211 145.638 97.4319 171.353 97.3786 172.743C97.2339 176.537 97.0804 177.063 99.0658 178.149C99.5744 178.427 100.369 178.166 101.154 179.122C103.304 181.739 106.535 183.299 107.007 181.862C107.328 180.512 102.195 175.967 101.776 173.134C101.34 170.19 100.306 144.183 99.7522 141.64C98.7623 137.093 91.6191 129.527 92.6275 145.716Z" fill="#FFC999"/>
<path fill-rule="evenodd" clip-rule="evenodd" d="M97.7408 178.586C97.7408 178.586 96.8601 176.477 97.3822 173.97C97.3822 173.97 99.3316 175.62 100.754 177.388C102.396 179.428 102.81 179.545 102.81 179.545C104.949 180.305 105.487 179.085 105.487 179.085C105.487 179.085 106.607 180.652 108.768 182.377C110.703 183.923 102.945 183.91 101.963 181.911C100.982 179.912 99.6304 178.713 99.6304 178.713L98.9042 181.654L98.1674 181.603L97.7408 178.586Z" fill="#253368"/>
<path fill-rule="evenodd" clip-rule="evenodd" d="M100.964 136.108L102.938 166.566L90.2783 166.981C90.2783 166.981 89.5886 152.179 89.1128 136.994C89.1128 136.994 88.3259 129.096 94.584 128.754C100.842 128.413 100.964 136.108 100.964 136.108Z" fill="#E4EBF7"/>
<path fill-rule="evenodd" clip-rule="evenodd" d="M100.788 136.265C100.266 124.03 98.8707 110.957 97.7117 108.302C97.7117 108.302 96.3172 106.71 92.2587 109.342C87.5263 112.412 88.4521 116.288 88.4521 116.288L89.1957 136.907C89.3208 138.524 89.8973 143.54 96.1042 142.793C102.213 142.058 100.8 136.531 100.788 136.265Z" fill="#E4EBF7"/>
<path fill-rule="evenodd" clip-rule="evenodd" d="M85.909 101.058C88.2486 101.818 94.2771 101.879 95.008 101.629C95.7387 101.379 95.1888 99.9855 95.1888 99.9855C98.4135 92.7642 98.3681 92.8726 98.5852 91.3529C98.8005 89.8435 97.6433 87.1146 97.6433 87.1146C97.6433 87.1146 98.6684 84.2446 98.352 83.3968C97.9242 82.2504 93.7283 82.4268 92.9748 81.9633C92.2213 81.4995 92.3127 80.0045 92.3127 80.0045L86.5734 79.4268C86.5734 79.4268 86.4035 81.1172 86.0523 81.6144C85.369 82.58 83.2468 81.4017 81.5584 83.3314C78.5411 86.7806 83.8172 94.1423 85.5331 98.8679C85.5331 98.8679 84.7266 99.9243 85.909 101.058Z" fill="#597EF7"/>
<path d="M87.8645 81.8248L92.687 82.4805C92.7672 82.4914 92.8234 82.5652 92.8125 82.6454C92.8025 82.7189 92.7396 82.7722 92.6674 82.7722L92.6476 82.7708L87.825 82.1151C87.7448 82.1042 87.6887 82.0304 87.6996 81.9503C87.7096 81.8768 87.7724 81.8235 87.8446 81.8235L87.8645 81.8248Z" fill="#253368"/>
<path d="M89.0238 82.6854L92.3716 83.4008C92.4507 83.4177 92.5011 83.4956 92.4842 83.5747C92.4687 83.6472 92.402 83.6956 92.33 83.6902L92.3103 83.6873L88.9626 82.9719C88.8835 82.955 88.833 82.8771 88.8499 82.798C88.8654 82.7255 88.9321 82.6771 89.0041 82.6825L89.0238 82.6854Z" fill="#253368"/>
<path d="M86.3093 90.2908C86.3685 90.2356 86.4612 90.2389 86.5163 90.2981L86.5396 90.3218C86.5723 90.3539 86.6242 90.4006 86.695 90.458C86.8493 90.583 87.0346 90.7085 87.2504 90.8258C88.1036 91.2896 89.1559 91.4918 90.408 91.2856L90.5159 91.2669C90.973 91.1837 92.0503 91.1958 93.5779 91.2777L94.0035 91.3017C94.2196 91.3144 94.4407 91.3283 94.6655 91.3431L94.8916 91.3582C95.2988 91.3859 95.6985 91.4153 96.0786 91.4449L96.8284 91.5059C96.909 91.5129 96.9687 91.5839 96.9617 91.6645C96.9547 91.7451 96.8837 91.8048 96.8031 91.7978L96.3332 91.7589L95.8647 91.7223C95.5435 91.6977 95.2102 91.6735 94.8718 91.6505L94.4234 91.621C94.2019 91.6069 93.9846 91.5938 93.7725 91.5818L93.2682 91.5551C91.9551 91.4902 91.0105 91.4833 90.5976 91.5501L90.5683 91.5552C89.2004 91.8038 88.0448 91.5911 87.1105 91.0832C86.8784 90.957 86.6784 90.8216 86.5106 90.6857L86.4474 90.6332C86.3792 90.5751 86.3307 90.5286 86.302 90.4978C86.2469 90.4386 86.2501 90.346 86.3093 90.2908Z" fill="#253368"/>
<path d="M97.5508 85.2801C97.6249 85.2776 97.688 85.3305 97.7002 85.4017L97.7022 85.4215L97.7612 87.1411L97.7926 87.2146C97.8262 87.2943 97.8635 87.3856 97.9037 87.487C98.0185 87.7765 98.1333 88.0898 98.2405 88.4155C98.3856 88.8566 98.5052 89.2861 98.5907 89.6917C98.6993 90.2067 98.7491 90.6653 98.7289 91.0541C98.6969 91.67 98.5255 92.4492 98.2405 93.3562C98.1008 93.8011 97.9363 94.2682 97.7521 94.75C97.5383 95.3089 97.3094 95.8586 97.0805 96.3755L96.9648 96.6339L96.8188 96.9511C96.7992 96.9929 96.7843 97.0243 96.7746 97.0444C96.7396 97.1173 96.652 97.148 96.5791 97.1129C96.5062 97.0779 96.4755 96.9903 96.5106 96.9174L96.5933 96.7414L96.698 96.5129C96.7346 96.4321 96.7729 96.3466 96.8126 96.2569C97.0396 95.7443 97.2666 95.1992 97.4784 94.6454C97.6606 94.1688 97.8232 93.7072 97.961 93.2684C98.2392 92.3829 98.4059 91.6255 98.4364 91.0389C98.455 90.679 98.4079 90.2443 98.3041 89.7521C98.221 89.358 98.1041 88.9386 97.9622 88.5071C97.8745 88.2405 97.7816 87.9823 97.6878 87.7391L97.6314 87.595C97.5999 87.5154 97.5701 87.4423 97.5427 87.3764L97.4819 87.2333C97.4768 87.2219 97.4733 87.2099 97.4713 87.1977L97.4695 87.1791L97.4094 85.4315C97.4066 85.3507 97.4699 85.2829 97.5508 85.2801Z" fill="#253368"/>
<path fill-rule="evenodd" clip-rule="evenodd" d="M93.0203 117.135L98.4754 111.946C98.4754 111.946 97.8317 105.993 95.2343 103.225L85.3082 102.126C85.3082 102.126 81.2014 104.131 79.2812 111.669L88.0524 116.802L93.0203 117.135Z" fill="#E4EBF7"/>
<path fill-rule="evenodd" clip-rule="evenodd" d="M85.0664 102.225L95.2336 103.225L95.098 101.648L85.5249 100.635L85.0664 102.225Z" fill="#E4EBF7"/>
<path d="M91.6849 102.965C91.7455 102.963 91.7966 103.01 91.799 103.071C91.838 104.042 91.8448 105.091 91.8222 106.206C91.7805 108.272 91.6414 110.482 91.4356 112.713L91.3949 113.146C91.3263 113.86 91.2546 114.536 91.1827 115.163L91.1252 115.653L91.0361 116.363C91.028 116.423 90.9727 116.466 90.9126 116.457C90.8525 116.449 90.8103 116.394 90.8184 116.334L90.8735 115.901C90.8951 115.727 90.9183 115.534 90.9428 115.324L90.9859 114.949C91.0648 114.25 91.1431 113.493 91.2168 112.693C91.4222 110.466 91.5609 108.262 91.6025 106.202C91.625 105.09 91.6183 104.046 91.5795 103.079C91.5771 103.019 91.6242 102.968 91.6849 102.965Z" fill="#A3B5D6"/>
<path d="M85.0976 102.198L95.0658 103.125C95.1263 103.131 95.1707 103.184 95.1651 103.245C95.16 103.299 95.1161 103.34 95.0634 103.344L95.0455 103.344L85.0772 102.417C85.0168 102.412 84.9724 102.358 84.978 102.298C84.9831 102.243 85.0269 102.202 85.0797 102.198L85.0976 102.198Z" fill="#A3B5D6"/>
<path fill-rule="evenodd" clip-rule="evenodd" d="M84.9462 151.483C84.9579 151.406 82.7539 170.665 82.7123 172.056C82.5995 175.85 83.0205 176.384 80.9659 177.332C80.4397 177.575 79.6648 177.261 78.8164 178.162C76.4935 180.627 73.1645 181.964 72.7912 180.498C72.5624 179.129 77.9917 174.943 78.6028 172.145C79.2374 169.238 76.1612 146.479 78.2144 144.881C80.2678 143.283 84.7109 135.508 84.9462 151.483Z" fill="#FFC999"/>
<path fill-rule="evenodd" clip-rule="evenodd" d="M82.2585 177.858C82.2585 177.858 82.9768 175.816 82.6259 173.28C82.6259 173.28 80.8727 174.792 79.3338 176.458C77.5566 178.383 77.1356 178.471 77.1356 178.471C74.9501 179.085 74.4957 177.83 74.4957 177.83C74.4957 177.83 73.2723 179.318 70.9994 180.893C68.9641 182.303 76.705 182.817 77.82 180.89C78.9348 178.962 80.3647 177.857 80.3647 177.857L80.8894 180.84L81.6283 180.84L82.2585 177.858Z" fill="#253368"/>
<path fill-rule="evenodd" clip-rule="evenodd" d="M77.164 133.01L74.5146 166.158L86.2349 167.125C86.2349 167.125 88.2903 149.254 89.0005 134.079C89.0005 134.079 89.9093 126.193 83.6573 125.755C77.4051 125.317 77.164 133.01 77.164 133.01Z" fill="#E4EBF7"/>
<path fill-rule="evenodd" clip-rule="evenodd" d="M88.939 133.52C90.2887 121.349 90.9257 107.913 90.1847 105.112C90.1847 105.112 89.0495 103.326 84.6371 105.309C79.492 107.621 79.3291 112 79.3291 112L77.0882 132.318C76.9651 133.936 76.4729 138.637 82.666 139.486C88.7624 140.322 88.9097 133.785 88.939 133.52Z" fill="#E4EBF7"/>
<path fill-rule="evenodd" clip-rule="evenodd" d="M81.1542 98.9093C81.1542 98.9093 85.1277 90.3678 85.7459 88.2402C87.238 83.1013 84.925 82.0981 82.2686 83.2744C79.0665 84.6924 75.1853 98.6512 75.1853 98.6512C75.1853 98.6512 74.8416 100.422 76.9223 101.396C79.3814 102.548 81.1542 98.9093 81.1542 98.9093Z" fill="#FFC999"/>
<path fill-rule="evenodd" clip-rule="evenodd" d="M83.5468 93.7125C83.8872 92.7422 89.2559 84.5194 84.5757 82.4314C81.5227 81.0691 79.8762 83.8743 77.2031 91.069L83.5468 93.7125Z" fill="#597EF7"/>
<path fill-rule="evenodd" clip-rule="evenodd" d="M95.9825 99.8186C95.8943 100.712 95.1525 101.398 94.2554 101.418L78.4817 101.758C76.6703 101.797 75.2207 100.265 75.3598 98.4584C75.4958 96.6926 77.0954 95.4094 78.8485 95.6596L94.4678 97.888C95.4083 98.0221 96.0759 98.8732 95.9825 99.8186Z" fill="#FFC999"/>
<path fill-rule="evenodd" clip-rule="evenodd" d="M94.692 103.875L98.1599 93.0265C98.2173 92.8475 98.3822 92.7253 98.57 92.7227L108.295 92.5911C108.597 92.587 108.812 92.8835 108.713 93.1692L105.093 103.73C105.035 103.899 104.879 104.016 104.7 104.024L95.1271 104.444C94.8235 104.457 94.5994 104.164 94.692 103.875Z" fill="#253368"/>
<path fill-rule="evenodd" clip-rule="evenodd" d="M95.2042 103.743L98.6117 93.0833C98.6812 92.8668 98.881 92.7189 99.1083 92.7156L108.953 92.5823C109.164 92.5794 109.315 92.7868 109.246 92.9866L105.576 103.693C105.511 103.881 105.338 104.011 105.14 104.019L95.731 104.432C95.3633 104.448 95.0923 104.093 95.2042 103.743Z" fill="#253368"/>
<path fill-rule="evenodd" clip-rule="evenodd" d="M99.9447 93.7426C100.055 93.8651 100.015 94.0801 99.8562 94.2231C99.6971 94.3661 99.4792 94.3828 99.369 94.2603C99.2589 94.1378 99.2984 93.9228 99.4575 93.7795C99.6163 93.6369 99.8345 93.6202 99.9447 93.7426Z" fill="#ADC6FF"/>
<path fill-rule="evenodd" clip-rule="evenodd" d="M99.8146 93.8709C99.8717 93.9344 99.8512 94.0461 99.7686 94.1205C99.6863 94.1943 99.5729 94.2031 99.5157 94.1395C99.4586 94.0759 99.4791 93.9643 99.5617 93.8902C99.6441 93.8161 99.7574 93.8073 99.8146 93.8709Z" fill="#E4EBF7"/>
<path fill-rule="evenodd" clip-rule="evenodd" d="M99.0208 101.835C99.5795 101.781 99.8736 101.547 99.8206 101.082C100.493 100.87 100.417 100.301 100.417 100.301C100.417 100.301 101.711 100.281 101.929 99.7286C102.013 99.5139 101.849 99.2839 101.619 99.2684C98.8476 99.0806 96.8716 97.6122 96.8716 97.6122C96.8716 97.6122 97.9608 96.012 97.8457 95.2737C97.8117 95.0552 97.526 94.9849 97.3927 95.1609C96.2502 96.6688 93.9589 97.8513 93.9589 97.8513C93.9589 97.8513 91.2085 100.428 94.1921 101.597C94.1921 101.597 96.4661 102.503 98.0499 102.388C98.7993 102.334 99.0208 101.835 99.0208 101.835Z" fill="#FFC999"/>
<path d="M98.3791 99.8098C98.4022 99.7685 98.4545 99.7537 98.4959 99.7768C98.6944 99.8878 98.9264 99.9782 99.1851 100.05C99.4933 100.135 99.8242 100.189 100.157 100.219C100.325 100.234 100.467 100.24 100.575 100.242L100.653 100.242C100.7 100.242 100.739 100.28 100.74 100.327C100.74 100.369 100.71 100.405 100.67 100.412L100.655 100.414L100.613 100.414C100.498 100.413 100.336 100.407 100.142 100.39C99.7995 100.359 99.4586 100.303 99.1395 100.215C98.8682 100.14 98.6236 100.045 98.4121 99.9266C98.3708 99.9035 98.356 99.8512 98.3791 99.8098Z" fill="#DD936F"/>
<path d="M98.1179 100.662C98.1386 100.619 98.1899 100.601 98.2326 100.622L98.3095 100.658C98.6388 100.806 98.9924 100.901 99.3474 100.954C99.5667 100.986 99.7424 100.996 99.8516 100.996C99.9003 100.995 99.9392 101.033 99.9399 101.08C99.9404 101.122 99.9105 101.158 99.8706 101.166L99.8552 101.167L99.8191 101.167L99.7422 101.165C99.6315 101.161 99.4887 101.148 99.3224 101.124C98.9526 101.069 98.584 100.97 98.2389 100.814L98.1579 100.776C98.1152 100.756 98.0973 100.704 98.1179 100.662Z" fill="#DD936F"/>
<path d="M97.6248 101.613C97.6454 101.571 97.6967 101.553 97.7394 101.573C97.8307 101.617 98.0462 101.659 98.3392 101.692C98.489 101.71 98.6498 101.724 98.8107 101.736L98.9662 101.746L99.0248 101.749C99.0721 101.752 99.1086 101.792 99.1062 101.839C99.1037 101.887 99.0634 101.923 99.0161 101.921L98.9559 101.917C98.9083 101.915 98.8553 101.911 98.7983 101.907C98.6352 101.895 98.4721 101.881 98.3195 101.863L98.1989 101.848C97.9478 101.815 97.7646 101.776 97.6647 101.728C97.622 101.707 97.6042 101.656 97.6248 101.613Z" fill="#DD936F"/>
<path d="M78.8447 95.574L78.8602 95.5747L94.0896 97.6554C94.1365 97.6618 94.1694 97.7051 94.163 97.752C94.1573 97.7938 94.1225 97.8244 94.0818 97.8262L94.0663 97.8255L78.8369 95.7448C78.79 95.7384 78.7571 95.6951 78.7635 95.6481C78.7692 95.6064 78.804 95.5758 78.8447 95.574Z" fill="#DD936F"/>
<path d="M94.6092 115.083C94.6593 115.049 94.7277 115.062 94.7619 115.112C94.7924 115.156 94.7856 115.215 94.7485 115.252L94.7332 115.264L90.7098 118.014L86.344 165.963C86.3391 166.017 86.2953 166.059 86.2425 166.062H86.2246C86.1702 166.057 86.1287 166.013 86.125 165.961L86.1252 165.943L90.4957 117.943C90.4981 117.917 90.5097 117.892 90.5281 117.874L90.5431 117.862L94.6092 115.083Z" fill="#A3B5D6"/>
<path d="M85.4744 89.2814C85.5072 89.2074 85.5938 89.1741 85.6677 89.207C85.7355 89.2371 85.7691 89.3124 85.7489 89.3816L85.7421 89.4004L83.7622 93.8547C83.732 93.9225 83.6566 93.9561 83.5873 93.9358L83.5685 93.9289L77.2996 91.1243C77.2257 91.0912 77.1927 91.0046 77.2257 90.9307C77.256 90.8631 77.3313 90.8296 77.4005 90.85L77.4192 90.8569L83.5539 93.6013L85.4744 89.2814Z" fill="#253368"/>
<path fill-rule="evenodd" clip-rule="evenodd" d="M62.073 85.5292C62.073 85.5292 59.1097 82.1277 56.0392 84.8947C52.9087 87.7164 56.0414 91.0412 56.0414 91.0412C56.0414 91.0412 58.0724 93.4453 60.6237 96.2764C62.6169 98.4882 64.1384 100.193 65.5489 101.487C67.071 102.884 69.3652 103.056 70.8031 101.76C72.9884 99.7904 72.6961 97.6519 71.3913 96.0644C70.1222 94.5207 68.3459 92.4908 66.9092 90.8205C64.1471 87.6088 62.073 85.5292 62.073 85.5292Z" fill="#ADC6FF"/>
<path fill-rule="evenodd" clip-rule="evenodd" d="M53.1472 115.21C53.1472 115.21 56.4678 113.122 56.2522 111.291C56.0566 109.633 53.9071 109.596 53.9071 109.596C53.9071 109.596 52.2239 109.758 50.4589 110.425C49.3022 110.863 46.9797 111.367 47.0445 112.019C47.1292 112.869 49.4199 111.967 49.8507 112.415C50.7231 113.324 47.2688 115.123 46.8653 115.716C46.0767 116.873 49.1833 117.746 53.1472 115.21Z" fill="#C99382"/>
<path d="M50.2944 114.146C50.3401 114.098 50.4166 114.095 50.4652 114.141C50.5138 114.187 50.5162 114.263 50.4704 114.312L50.3945 114.389L50.3717 114.412C50.2924 114.49 50.2001 114.577 50.0957 114.67C49.7978 114.937 49.4625 115.204 49.0966 115.453C48.5178 115.847 47.9176 116.159 47.3078 116.358C47.2444 116.379 47.1762 116.344 47.1554 116.281C47.1347 116.217 47.1693 116.149 47.2327 116.128C47.8189 115.937 48.3993 115.635 48.9606 115.253C49.3171 115.01 49.6441 114.75 49.9344 114.49C50.0156 114.417 50.0892 114.349 50.1546 114.286L50.243 114.199C50.2668 114.175 50.2841 114.157 50.2944 114.146Z" fill="#9B6160"/>
<path d="M51.2381 114.714C51.2884 114.67 51.3647 114.675 51.4086 114.725C51.4524 114.776 51.4471 114.852 51.3968 114.896C50.6319 115.562 49.8615 116.068 49.1233 116.435C48.8643 116.564 48.6276 116.667 48.418 116.746C48.3626 116.767 48.3121 116.785 48.2666 116.8L48.1791 116.828C48.1672 116.832 48.1579 116.835 48.1514 116.837C48.0871 116.855 48.0205 116.817 48.0025 116.753C47.9846 116.688 48.0222 116.622 48.0865 116.604L48.1481 116.585L48.2339 116.556C48.2647 116.545 48.2977 116.533 48.3329 116.52C48.535 116.444 48.7641 116.344 49.0156 116.219C49.7359 115.86 50.4892 115.365 51.2381 114.714Z" fill="#9B6160"/>
<path d="M52.237 114.974C52.2843 114.927 52.3608 114.928 52.4079 114.975C52.455 115.022 52.4548 115.099 52.4075 115.146L52.364 115.187C52.3453 115.204 52.3223 115.225 52.2949 115.248L52.2661 115.273C52.1499 115.373 52.0081 115.485 51.8397 115.607C51.3605 115.956 50.7637 116.319 50.042 116.679C49.9823 116.709 49.9097 116.685 49.8799 116.625C49.8501 116.565 49.8744 116.492 49.9341 116.463C50.6438 116.109 51.229 115.752 51.6975 115.412C51.8608 115.293 51.9976 115.185 52.109 115.09L52.1809 115.027C52.2071 115.003 52.2257 114.986 52.237 114.974Z" fill="#9B6160"/>
<path fill-rule="evenodd" clip-rule="evenodd" d="M66.226 97.4413C66.226 97.4413 69.8158 94.5167 72.3578 97.4368C74.9791 100.448 71.6656 103.413 71.6656 103.413C71.6656 103.413 69.2824 105.442 66.3562 107.955C64.5693 109.49 62.5628 111.144 60.9338 112.137C59.1697 113.211 58.2725 112.489 57.0015 111.028C55.492 109.295 55.045 108.424 56.3889 106.87C57.6705 105.388 59.6409 103.631 61.1065 102.201C63.9012 99.4748 66.226 97.4413 66.226 97.4413Z" fill="#ADC6FF"/>
<path fill-rule="evenodd" clip-rule="evenodd" d="M56.1034 112.862L53.1641 109.486L55.2337 107.257L58.5962 111.12L56.1034 112.862Z" fill="#ADC6FF"/>
<path fill-rule="evenodd" clip-rule="evenodd" d="M61.3466 141.677C60.8713 133.257 60.2941 124.557 59.677 117.646C59.677 117.646 58.3818 112.697 53.8601 113.865C49.428 115.009 49.8214 120.678 49.8214 120.678L53.3142 142.838C53.3142 142.838 53.9232 146.441 57.9287 145.79C61.5819 145.196 61.3466 141.677 61.3466 141.677Z" fill="#597EF7"/>
<path fill-rule="evenodd" clip-rule="evenodd" d="M59.8344 162.767C58.2282 162.619 56.904 164.008 57.1309 165.605C57.3916 167.442 57.7316 169.926 58.0609 172.606C58.4006 175.364 58.6871 177.649 58.9159 177.919C59.9233 179.107 61.7154 179.397 63.6397 180.476C65.1621 181.329 65.4573 181.781 67.2974 181.926C69.9055 182.132 68.5977 181.174 65.3922 178.046C62.5366 175.26 62.5536 173.808 62.5536 173.808L62.1021 165.126C62.0377 163.885 61.0719 162.88 59.8344 162.767Z" fill="#C99382"/>
<path fill-rule="evenodd" clip-rule="evenodd" d="M65.0493 177.263C67.1157 179.118 69.4067 180.515 69.4592 181.496C69.5118 182.476 68.8369 183.439 65.536 182.65C63.2769 182.11 63.8499 181.577 61.6282 180.446C60.5183 179.882 60.148 179.995 59.1077 179.312C58.4842 178.665 58.3652 175.215 58.3652 175.215L62.4319 178.816C62.4319 178.816 61.2869 177.058 62.0217 176.573C62.7567 176.087 63.4438 175.736 63.9375 176.017C64.4316 176.299 65.0493 177.263 65.0493 177.263Z" fill="#7D4556"/>
<path fill-rule="evenodd" clip-rule="evenodd" d="M61.4012 142.419C62.1395 157.002 62.8224 172.254 62.8224 172.254L57.555 172.258L53.2472 143.412C53.2472 143.412 53.1573 139.022 57.1985 138.653C60.845 138.32 61.4012 142.419 61.4012 142.419Z" fill="#597EF7"/>
<path fill-rule="evenodd" clip-rule="evenodd" d="M39.247 142.551C39.5258 134.121 39.9002 125.41 40.3566 118.488C40.3566 118.488 41.5364 113.51 46.0842 114.571C50.5418 115.612 50.2801 121.289 50.2801 121.289L47.304 143.524C47.304 143.524 46.7793 147.141 42.7597 146.583C39.0933 146.075 39.247 142.551 39.247 142.551Z" fill="#597EF7"/>
<path fill-rule="evenodd" clip-rule="evenodd" d="M41.2497 163.6C42.8523 163.415 44.2081 164.772 44.0186 166.374C43.8004 168.217 43.5188 170.708 43.2516 173.395C42.9764 176.16 42.7431 178.451 42.5204 178.726C41.5407 179.937 39.7563 180.27 37.8578 181.392C36.3551 182.281 36.0709 182.739 34.2346 182.927C31.6317 183.193 32.9172 182.206 36.0486 179.005C38.8391 176.153 38.7879 174.702 38.7879 174.702L39.0373 166.011C39.0728 164.769 40.0154 163.742 41.2497 163.6Z" fill="#C99382"/>
<path fill-rule="evenodd" clip-rule="evenodd" d="M36.3734 178.213C34.3508 180.116 32.0934 181.566 32.0634 182.547C32.0337 183.529 32.7305 184.476 36.0124 183.61C38.2583 183.018 37.6727 182.497 39.868 181.316C40.964 180.726 41.3369 180.831 42.3614 180.123C42.9698 179.462 43.0085 176.01 43.0085 176.01L39.0263 179.704C39.0263 179.704 40.13 177.921 39.3843 177.452C38.6383 176.984 37.9435 176.649 37.4559 176.942C36.9686 177.234 36.3734 178.213 36.3734 178.213Z" fill="#7D4556"/>
<path fill-rule="evenodd" clip-rule="evenodd" d="M39.2098 143.294C38.8111 157.89 38.4834 173.154 38.4834 173.154L43.7495 173.035L47.3847 144.097C47.3847 144.097 47.3721 139.705 43.3238 139.43C39.6706 139.182 39.2098 143.294 39.2098 143.294Z" fill="#597EF7"/>
<path fill-rule="evenodd" clip-rule="evenodd" d="M52.9645 80.5253L52.7348 75.7117L46.35 75.7155L46.1937 80.5592C46.1241 82.4338 47.614 83.9971 49.4899 84.0174C49.5257 84.0177 49.5611 84.0184 49.5972 84.0187C51.5156 84.0406 53.0561 82.4415 52.9645 80.5253Z" fill="#C99382"/>
<path fill-rule="evenodd" clip-rule="evenodd" d="M54.0411 81.8315L53.3966 80.5425H45.6622L45.0177 81.8315C45.0177 81.8315 39.2001 82.033 38.2501 84.4097C37.2701 86.8611 40.7728 101.401 40.8282 104.39C39.5391 106.324 41.4727 107.935 41.4727 107.935L57.586 107.613C57.586 107.613 59.5196 106.646 58.2305 104.39C59.1973 100.201 62.0977 85.3765 60.8087 84.4097C57.6617 82.0494 54.0411 81.8315 54.0411 81.8315Z" fill="#ADC6FF"/>
<path d="M53.4742 81.8665C53.5406 81.8602 53.5996 81.909 53.6058 81.9755C53.6121 82.0419 53.5633 82.1009 53.4969 82.1071C52.8747 82.1659 52.1951 82.2063 51.4669 82.2298C49.959 82.2787 48.345 82.2543 46.7794 82.1841L46.526 82.1723C46.3609 82.1643 46.2038 82.1561 46.0556 82.1478L45.4921 82.1132C45.4256 82.1084 45.3754 82.0506 45.3802 81.984C45.385 81.9174 45.4428 81.8673 45.5093 81.8721L45.8542 81.8941L46.2971 81.9188C46.4143 81.9249 46.5362 81.9309 46.6625 81.9368L46.7903 81.9427C48.3501 82.0126 49.9582 82.0369 51.4591 81.9883C52.1825 81.9648 52.8573 81.9248 53.4742 81.8665Z" fill="#597EF7"/>
<path fill-rule="evenodd" clip-rule="evenodd" d="M59.805 118.927C59.2906 113.482 58.4914 110.944 57.8807 109.921C44.7593 110.296 41.4906 110.124 41.4906 110.124C41.4906 110.124 40.3675 113.301 40.2061 119.692C40.2061 119.692 44.7922 125.339 50.0055 125.339C54.7054 125.339 59.805 118.927 59.805 118.927Z" fill="#597EF7"/>
<path fill-rule="evenodd" clip-rule="evenodd" d="M57.8813 109.921L57.5861 107.613L41.566 107.645L41.4912 110.118C41.4912 110.118 49.9945 110.445 57.8813 109.921Z" fill="#597EF7"/>
<path d="M48.6175 110.29C48.6858 110.291 48.74 110.347 48.7386 110.416L48.7274 111.097C48.7254 111.234 48.7235 111.379 48.7216 111.532C48.6938 113.838 48.6965 116.318 48.7505 118.646L48.7678 119.317C48.8374 121.789 48.9651 123.765 49.1607 125.079C49.1708 125.146 49.1242 125.209 49.0567 125.219C48.9892 125.229 48.9263 125.183 48.9162 125.115L48.8903 124.935C48.6905 123.49 48.5657 121.334 48.5034 118.651C48.4538 116.515 48.4474 114.251 48.4682 112.11L48.4832 110.894L48.4914 110.411C48.4928 110.342 48.5493 110.288 48.6175 110.29Z" fill="#253368"/>
<path d="M50.9106 110.342C50.9788 110.343 51.0339 110.398 51.0336 110.466L51.0338 111.247C51.035 111.618 51.0377 112.038 51.0424 112.497C51.0547 113.676 51.0783 114.841 51.1159 115.93L51.1334 116.405C51.1843 117.702 51.2542 118.794 51.3453 119.625L51.3676 119.819L51.3681 119.843C51.2969 120.746 50.7918 121.297 50.0074 121.556C49.6067 121.689 49.1911 121.73 48.8264 121.717L48.7432 121.714C48.7094 121.712 48.6851 121.71 48.6715 121.708C48.6036 121.701 48.5542 121.641 48.5612 121.573C48.5682 121.505 48.6289 121.455 48.6968 121.462L48.7572 121.467C49.1127 121.487 49.5326 121.453 49.9298 121.321C50.6054 121.098 51.0333 120.646 51.1152 119.893L51.1204 119.834L51.1108 119.752C51.0135 118.903 50.9396 117.77 50.8864 116.416L50.8688 115.938C50.8349 114.956 50.8124 113.913 50.7993 112.853L50.7905 111.967C50.7886 111.711 50.7873 111.471 50.7866 111.248L50.7865 110.465C50.7868 110.397 50.8423 110.342 50.9106 110.342Z" fill="#253368"/>
<path d="M56.4459 110.394C56.5141 110.393 56.5703 110.448 56.5714 110.516L56.5755 110.633L56.5792 110.704C56.5878 110.856 56.6015 111.025 56.6215 111.207C56.6789 111.727 56.7754 112.247 56.9201 112.731C57.2516 113.84 57.7813 114.586 58.5403 114.816C58.6057 114.835 58.6426 114.904 58.6228 114.97C58.603 115.035 58.534 115.072 58.4687 115.052C57.6118 114.793 57.0361 113.982 56.6832 112.802C56.5338 112.302 56.4347 111.768 56.3759 111.234C56.3594 111.085 56.3471 110.944 56.3384 110.814L56.3272 110.612C56.3255 110.572 56.3246 110.541 56.3242 110.52C56.3232 110.452 56.3776 110.395 56.4459 110.394Z" fill="#253368"/>
<path d="M42.9284 110.68C42.9899 110.68 43.0412 110.724 43.0512 110.783L43.0529 110.803L43.0519 110.943C43.0493 111.099 43.0412 111.303 43.0248 111.542C42.9897 112.051 42.9256 112.559 42.8251 113.034C42.5614 114.279 42.096 115.103 41.3558 115.295C41.2897 115.312 41.2223 115.273 41.2052 115.207C41.188 115.141 41.2277 115.073 41.2938 115.056C41.9129 114.896 42.3375 114.144 42.5833 112.982C42.6811 112.52 42.7439 112.024 42.7782 111.525L42.787 111.386C42.7988 111.185 42.8042 111.015 42.8055 110.887L42.8058 110.805C42.8053 110.736 42.8602 110.681 42.9284 110.68Z" fill="#253368"/>
<path d="M45.7523 124.135C45.7829 124.073 45.8571 124.049 45.9181 124.079L46.0179 124.127L46.1791 124.202C46.2178 124.219 46.2585 124.237 46.3009 124.256C46.6044 124.389 46.9377 124.522 47.2901 124.647C47.967 124.886 48.6311 125.062 49.2512 125.151C49.807 125.23 50.3079 125.236 50.7405 125.157C50.8076 125.145 50.872 125.189 50.8842 125.257C50.8964 125.324 50.8519 125.388 50.7847 125.4C50.3232 125.484 49.7964 125.479 49.2163 125.396C48.5782 125.305 47.8989 125.124 47.2079 124.88C46.8493 124.753 46.5104 124.618 46.2016 124.482L46.0194 124.401L45.8208 124.307C45.8158 124.304 45.8114 124.302 45.8076 124.3C45.7466 124.27 45.7218 124.196 45.7523 124.135Z" fill="#253368"/>
<path d="M57.7476 107.65C57.8159 107.65 57.8712 107.705 57.8712 107.774C57.8712 107.835 57.8264 107.886 57.7677 107.896L57.7476 107.897H41.6343C41.5661 107.897 41.5107 107.842 41.5107 107.774C41.5107 107.712 41.5556 107.661 41.6143 107.652L41.6343 107.65H57.7476Z" fill="#253368"/>
<path d="M57.7476 109.906C57.8159 109.906 57.8712 109.961 57.8712 110.03C57.8712 110.091 57.8264 110.142 57.7677 110.152L57.7476 110.153H41.6343C41.5661 110.153 41.5107 110.098 41.5107 110.03C41.5107 109.968 41.5556 109.917 41.6143 109.908L41.6343 109.906H57.7476Z" fill="#253368"/>
<path fill-rule="evenodd" clip-rule="evenodd" d="M55.3649 71.2139C55.3649 71.2139 56.9952 69.3579 57.9417 71.1133C58.8412 72.7807 56.9894 75.0572 55.4193 74.5999C54.7332 73.0376 55.3649 71.2139 55.3649 71.2139Z" fill="#C99382"/>
<path fill-rule="evenodd" clip-rule="evenodd" d="M43.9996 71.2139C43.9996 71.2139 42.369 69.3579 41.4225 71.1133C40.523 72.7807 42.3751 75.0572 43.9449 74.5999C44.6313 73.0376 43.9996 71.2139 43.9996 71.2139Z" fill="#C99382"/>
<path fill-rule="evenodd" clip-rule="evenodd" d="M56.0335 71.6075C56.0335 77.3734 53.1695 78.8974 49.6365 78.8974C46.1039 78.8974 43.4816 77.4337 43.2399 71.6075C43.0169 66.2475 46.1039 64.448 49.6365 64.448C53.1695 64.448 56.0335 66.5453 56.0335 71.6075Z" fill="#C99382"/>
<path fill-rule="evenodd" clip-rule="evenodd" d="M50.1476 72.2425C50.1618 73.4069 51.117 74.3395 52.2813 74.3256C53.4457 74.3115 54.3783 73.3563 54.3645 72.1919C54.3503 71.0276 53.3951 70.0949 52.2307 70.1088C51.0664 70.123 50.1338 71.0782 50.1476 72.2425Z" fill="white"/>
<path d="M52.2902 69.9603L52.2291 69.9602C50.9827 69.9754 49.9844 70.9979 49.9992 72.2442C50.0144 73.4907 51.0369 74.489 52.2832 74.4742C53.5297 74.459 54.528 73.4365 54.5131 72.1901C54.4982 70.9641 53.5087 69.9782 52.2902 69.9603ZM52.2326 70.2573C53.3149 70.2444 54.2028 71.1113 54.216 72.1937C54.2289 73.2759 53.362 74.1639 52.2796 74.1771C51.1974 74.1899 50.3095 73.323 50.2963 72.2407C50.2836 71.1774 51.1202 70.3017 52.1759 70.2588L52.2326 70.2573Z" fill="#7D4556"/>
<path d="M51.7403 72.3445C51.7314 72.4171 51.6699 72.4737 51.5947 72.4746C51.5195 72.4755 51.4567 72.4204 51.446 72.348L51.4444 72.3278C51.4436 72.206 51.4661 72.0415 51.5361 71.8745C51.6594 71.5801 51.895 71.3935 52.2505 71.3892C52.6034 71.385 52.8524 71.5521 53.0016 71.8242C53.0869 71.9795 53.1238 72.1323 53.1334 72.2404C53.1406 72.3222 53.0803 72.3943 52.9985 72.4015C52.9236 72.4082 52.8568 72.358 52.8406 72.2866L52.834 72.2406C52.8313 72.224 52.827 72.2022 52.8208 72.1766C52.8034 72.1047 52.7772 72.0329 52.7411 71.9671C52.6416 71.7858 52.4893 71.6835 52.2541 71.6863C52.027 71.6891 51.8907 71.797 51.8101 71.9893C51.7803 72.0605 51.7608 72.1384 51.7501 72.217L51.7441 72.2696C51.7428 72.2852 51.742 72.2988 51.7417 72.3099L51.7415 72.3247L51.7403 72.3445Z" fill="#7D4556"/>
<path d="M45.4459 69.4509C46.0972 69.0383 47.0663 69.0383 48.3876 69.6988C48.461 69.7355 48.4908 69.8248 48.4541 69.8982C48.4174 69.9715 48.3282 70.0013 48.2548 69.9646C47.022 69.3483 46.163 69.3483 45.6049 69.7019C45.5266 69.7514 45.4624 69.8041 45.4113 69.856L45.3822 69.8871C45.3704 69.9004 45.3628 69.9102 45.3591 69.9156C45.3128 69.9833 45.2203 70.0007 45.1526 69.9544C45.0849 69.908 45.0675 69.8156 45.1138 69.7479C45.1683 69.6683 45.2764 69.5582 45.4459 69.4509Z" fill="#7D4556"/>
<path d="M52.5167 69.1254C52.9255 69.1035 53.2899 69.1691 53.5957 69.339C53.6674 69.3788 53.6932 69.4693 53.6534 69.541C53.6135 69.6127 53.5231 69.6385 53.4514 69.5987C53.1995 69.4587 52.8896 69.403 52.5325 69.4221C52.1641 69.4418 51.7653 69.5394 51.3628 69.69C51.2028 69.7498 51.0534 69.814 50.9189 69.878L50.829 69.9219C50.7951 69.939 50.7693 69.9525 50.7526 69.9618C50.6807 70.0014 50.5904 69.9753 50.5507 69.9035C50.5111 69.8316 50.5372 69.7413 50.6091 69.7016L50.6943 69.6571C50.7128 69.6478 50.7333 69.6377 50.7558 69.6267L50.7911 69.6098C50.933 69.5422 51.0902 69.4747 51.2587 69.4117C51.6871 69.2513 52.114 69.1469 52.5167 69.1254Z" fill="#7D4556"/>
<path d="M48.7507 70.3894C48.8101 70.3591 48.8829 70.3828 48.9132 70.4423L48.94 70.498C48.951 70.5218 48.9639 70.5506 48.9784 70.5841C49.0263 70.6948 49.0741 70.8186 49.1187 70.9528C49.265 71.393 49.3439 71.8383 49.3189 72.2586C49.3039 72.5147 49.2574 72.7482 49.1715 73.0485L49.0569 73.4379C48.9592 73.7773 48.9569 73.8376 48.9888 73.9544C49.0363 74.1285 49.2475 74.2401 49.7409 74.2938C49.8072 74.301 49.8551 74.3606 49.8479 74.427C49.8407 74.4933 49.781 74.5413 49.7147 74.534C49.1334 74.4708 48.8364 74.3139 48.7556 74.0181L48.7412 73.9619C48.7067 73.8143 48.7214 73.7216 48.845 73.3005L48.9129 73.0715C49.0113 72.742 49.0625 72.5037 49.0776 72.2443C49.1005 71.859 49.0268 71.4425 48.8893 71.029C48.847 70.9019 48.8018 70.7845 48.7566 70.68L48.7319 70.6241C48.717 70.5911 48.7053 70.5667 48.6977 70.5519C48.6675 70.4924 48.6912 70.4196 48.7507 70.3894Z" fill="#9B6160"/>
<path d="M47.775 74.9203C47.7935 74.8526 47.8633 74.8127 47.9309 74.8312L47.9751 74.8424C47.9946 74.8471 48.0188 74.8527 48.0476 74.8591C48.1446 74.8807 48.2562 74.9022 48.3809 74.9224C49.2365 75.061 50.1637 75.061 51.0519 74.8308C51.1198 74.8132 51.1891 74.8539 51.2067 74.9218C51.2243 74.9897 51.1835 75.059 51.1156 75.0766C50.1887 75.3168 49.2278 75.3168 48.3403 75.1731C48.2366 75.1563 48.1413 75.1385 48.0553 75.1206L47.9926 75.107C47.931 75.0933 47.8876 75.0826 47.8641 75.0762C47.7964 75.0577 47.7566 74.9879 47.775 74.9203Z" fill="#7D4556"/>
<path fill-rule="evenodd" clip-rule="evenodd" d="M44.8244 72.2425C44.8382 73.4069 45.7934 74.3395 46.9578 74.3256C48.1221 74.3115 49.0551 73.3563 49.0409 72.1919C49.027 71.0276 48.0715 70.0949 46.9075 70.1088C45.7432 70.123 44.8102 71.0782 44.8244 72.2425Z" fill="white"/>
<path d="M46.9058 69.9602C45.6593 69.9754 44.6608 70.998 44.676 72.2443C44.6908 73.4906 45.7133 74.489 46.9597 74.4742C48.2062 74.459 49.2048 73.4363 49.1896 72.1901C49.175 70.9643 48.1853 69.9782 46.967 69.9603L46.9058 69.9602ZM46.9094 70.2573C47.9915 70.2444 48.8796 71.1115 48.8925 72.1936C48.9057 73.2758 48.0386 74.1639 46.9561 74.1771C45.8738 74.1899 44.9859 73.323 44.9731 72.2407C44.9601 71.1775 45.7968 70.3017 46.8527 70.2588L46.9094 70.2573Z" fill="#7D4556"/>
<path d="M46.4171 72.3445C46.4081 72.4171 46.3467 72.4737 46.2714 72.4746C46.1962 72.4755 46.1334 72.4204 46.1227 72.348L46.1211 72.3278C46.1204 72.206 46.1429 72.0414 46.2129 71.8745C46.3362 71.5801 46.572 71.3935 46.9276 71.3892C47.2803 71.385 47.5293 71.5521 47.6786 71.8242C47.7638 71.9795 47.8009 72.1322 47.8105 72.2404C47.8178 72.3221 47.7574 72.3943 47.6757 72.4015C47.6008 72.4082 47.5339 72.358 47.5177 72.2867L47.511 72.2407C47.5083 72.224 47.5041 72.2023 47.4979 72.1767C47.4804 72.1047 47.4542 72.0329 47.4181 71.9671C47.3185 71.7858 47.1663 71.6835 46.9311 71.6863C46.7039 71.6891 46.5675 71.7971 46.4869 71.9893C46.4571 72.0605 46.4376 72.1384 46.4268 72.217L46.4209 72.2696C46.4195 72.2852 46.4188 72.2988 46.4184 72.3099L46.4182 72.3247L46.4171 72.3445Z" fill="#7D4556"/>
<path fill-rule="evenodd" clip-rule="evenodd" d="M49.041 71.5474C49.041 71.5474 49.615 71.2458 50.1477 71.5474H49.041Z" fill="white"/>
<path d="M49.041 71.5474C49.041 71.5474 49.615 71.2458 50.1477 71.5474" stroke="#7D4556" stroke-width="1.383"/>
<path d="M52.7811 78.2397C52.8429 78.2145 52.9134 78.2441 52.9387 78.3059C52.9639 78.3677 52.9343 78.4382 52.8725 78.4635C50.7575 79.3275 48.5921 79.1981 46.6831 78.5413C46.62 78.5196 46.5865 78.4508 46.6082 78.3877C46.6299 78.3246 46.6987 78.291 46.7618 78.3127C48.6203 78.9522 50.7287 79.0781 52.7811 78.2397Z" fill="#9B6160"/>
<path d="M50.0452 76.0171C50.1119 76.0171 50.166 76.0712 50.166 76.1379C50.166 76.198 50.1222 76.2478 50.0648 76.2572L50.0452 76.2588H49.0925C49.0258 76.2588 48.9717 76.2047 48.9717 76.1379C48.9717 76.0779 49.0155 76.028 49.0729 76.0187L49.0925 76.0171H50.0452Z" fill="#9B6160"/>
<path d="M49.5007 77.3328C49.5608 77.3328 49.6106 77.3766 49.62 77.434L49.6216 77.4536V78.7694C49.6216 78.8362 49.5675 78.8903 49.5007 78.8903C49.4407 78.8903 49.3908 78.8464 49.3815 78.789L49.3799 78.7694V77.4536C49.3799 77.3869 49.434 77.3328 49.5007 77.3328Z" fill="#9B6160"/>
<path d="M50.0283 77.6969C50.0879 77.6888 50.1432 77.7255 50.1602 77.7811L50.1644 77.8003L50.3007 78.7984C50.3098 78.8645 50.2635 78.9254 50.1974 78.9345C50.1378 78.9426 50.0825 78.9059 50.0655 78.8503L50.0613 78.8311L49.925 77.833C49.9159 77.7669 49.9622 77.706 50.0283 77.6969Z" fill="#9B6160"/>
<path d="M48.7932 78.0148C48.8526 78.024 48.8952 78.0748 48.8958 78.133L48.8943 78.1526L48.8038 78.7424C48.7937 78.8083 48.732 78.8536 48.666 78.8435C48.6066 78.8344 48.564 78.7835 48.5635 78.7253L48.5649 78.7057L48.6554 78.116C48.6646 78.0566 48.7154 78.014 48.7736 78.0134L48.7932 78.0148Z" fill="#9B6160"/>
<path d="M50.5126 77.9267C50.5706 77.9112 50.6301 77.9408 50.6539 77.9938L50.6605 78.0124L50.8419 78.693C50.8591 78.7575 50.8208 78.8237 50.7563 78.8409C50.6983 78.8564 50.6388 78.8268 50.615 78.7738L50.6084 78.7552L50.427 78.0746C50.4098 78.0101 50.4481 77.9439 50.5126 77.9267Z" fill="#9B6160"/>
<path d="M41.7172 71.624C41.984 71.3076 42.3369 71.3076 42.6698 71.8248C42.8059 72.1359 42.7937 72.3433 42.6754 72.633L42.6108 72.7842L42.6083 72.7906C42.5371 72.9683 42.5417 73.0812 42.6597 73.258C42.6946 73.3104 42.7347 73.3525 42.7792 73.3859C42.87 73.454 42.9602 73.4765 43.0129 73.4765C43.0796 73.4765 43.1337 73.5306 43.1337 73.5974C43.1337 73.6641 43.0796 73.7182 43.0129 73.7182C42.9125 73.7182 42.773 73.6834 42.6342 73.5793C42.568 73.5296 42.5088 73.4675 42.4586 73.3921C42.3027 73.1584 42.2864 72.971 42.3676 72.7438L42.3981 72.6659C42.4036 72.6533 42.4127 72.6323 42.4318 72.5885C42.5459 72.3268 42.5611 72.1794 42.4577 71.9389C42.2266 71.582 42.0687 71.582 41.902 71.7798C41.8557 71.8347 41.8225 71.8906 41.8064 71.9247C41.778 71.9851 41.706 72.011 41.6456 71.9826C41.5852 71.9542 41.5593 71.8822 41.5877 71.8218C41.612 71.7702 41.6552 71.6975 41.7172 71.624Z" fill="#9B6160"/>
<path d="M56.481 71.8076C56.8046 71.3076 57.1576 71.3076 57.4243 71.624C57.4863 71.6976 57.5296 71.7703 57.5538 71.8218C57.5822 71.8822 57.5563 71.9542 57.4959 71.9826C57.4355 72.011 57.3635 71.9851 57.3351 71.9247C57.3191 71.8906 57.2859 71.8348 57.2395 71.7798C57.0728 71.582 56.9149 71.582 56.6931 71.9217C56.5874 72.1633 56.5943 72.3079 56.6895 72.5407L56.7576 72.7007C56.8566 72.9478 56.8486 73.1438 56.683 73.3921C56.6327 73.4675 56.5736 73.5296 56.5073 73.5793C56.3685 73.6834 56.2291 73.7182 56.1287 73.7182C56.0619 73.7182 56.0078 73.6641 56.0078 73.5974C56.0078 73.5306 56.0619 73.4765 56.1287 73.4765C56.1813 73.4765 56.2715 73.454 56.3623 73.3859C56.4068 73.3526 56.447 73.3104 56.4819 73.258C56.592 73.093 56.6033 72.9836 56.5465 72.8253L56.5168 72.7508L56.4881 72.6851C56.3497 72.3674 56.3276 72.1542 56.481 71.8076Z" fill="#9B6160"/>
<path fill-rule="evenodd" clip-rule="evenodd" d="M42.9983 72.5539C42.9983 72.5539 42.0302 71.5255 42.5142 70.2551C41.6673 68.7428 42.2119 67.2909 42.9983 66.7466C42.7562 65.416 43.6634 63.0567 45.539 62.8147C46.6428 63.2533 47.9586 63.2987 47.9586 63.2987C47.9586 63.2987 51.1039 61.484 53.2818 63.6616C55.5196 63.4196 56.6691 65.9603 56.4877 66.8675C57.6975 68.3799 56.7297 70.6786 56.7297 70.6786C56.7297 70.6786 56.5947 71.5677 56.1854 72.7959C55.7616 74.0663 55.5805 72.433 55.5805 72.0701C55.5805 71.707 54.673 71.4047 54.9756 69.7714C53.9472 69.0454 54.1741 67.9264 54.1741 67.9264C54.1741 67.9264 53.4329 68.6825 51.3159 67.6541C49.8032 68.9245 47.5045 67.6541 47.5045 67.6541C47.5045 67.6541 45.6447 68.5462 44.5558 67.881C44.5558 67.881 44.8581 68.7882 44.0115 70.0586C44.3138 71.2683 43.4214 71.8281 43.6634 72.5539C43.9054 73.2796 43.2403 74.0057 42.9983 72.5539Z" fill="#7D4556"/>
<path fill-rule="evenodd" clip-rule="evenodd" d="M36.6317 85.6701C36.6317 85.6701 38.8441 81.7385 42.4115 83.8261C46.0489 85.955 43.6548 89.8457 43.6548 89.8457C43.6548 89.8457 42.1534 92.6117 40.2285 95.9008C38.7245 98.4705 37.5801 100.449 36.4612 102.002C35.2537 103.677 33.042 104.311 31.3714 103.333C28.8322 101.847 28.6849 99.6938 29.6414 97.8749C30.5712 96.1064 31.8992 93.7583 32.9679 91.8315C35.022 88.1271 36.6317 85.6701 36.6317 85.6701Z" fill="#ADC6FF"/>
<path fill-rule="evenodd" clip-rule="evenodd" d="M53.1955 89.9418L49.8623 89.8477C49.532 89.8383 49.2658 89.5737 49.2545 89.2431L49.0179 82.3105C49.0057 81.9496 49.3002 81.6531 49.6612 81.6631L53.8574 81.7814C54.2183 81.7917 54.4958 82.1043 54.4636 82.4639L53.8365 89.3723C53.8065 89.7017 53.5258 89.9511 53.1955 89.9418Z" fill="#4E5C93"/>
<path fill-rule="evenodd" clip-rule="evenodd" d="M53.1844 90.3004L49.8516 90.2063C49.5212 90.197 49.255 89.9324 49.2434 89.6017L49.0072 82.6692C48.9947 82.3082 49.2895 82.0117 49.6505 82.0217L53.8467 82.14C54.2076 82.1503 54.4851 82.4629 54.4529 82.8226L53.8257 89.731C53.7958 90.0603 53.5151 90.3098 53.1844 90.3004Z" fill="#253368"/>
<path fill-rule="evenodd" clip-rule="evenodd" d="M49.2702 92.1153C49.2702 92.1153 46.656 92.8063 45.5654 91.397C44.578 90.1205 45.6334 88.8237 45.6334 88.8237C45.6334 88.8237 46.0234 88.1611 47.4965 87.2262C48.2554 86.7448 49.1835 84.894 49.1577 85.5269C49.1065 86.7899 49.2006 87.0312 49.207 87.6323C49.2203 88.8501 53.2682 88.076 53.9479 88.2117C55.276 88.4769 53.7223 91.1824 49.2702 92.1153Z" fill="#C99382"/>
<path d="M53.9732 88.7413C54.033 88.7117 54.1055 88.7362 54.1351 88.796C54.1647 88.8558 54.1402 88.9283 54.0804 88.9579C53.8622 89.066 53.632 89.1614 53.3912 89.245C52.812 89.4462 52.1937 89.5724 51.5689 89.6384C51.1901 89.6785 50.8621 89.6916 50.6105 89.6891L50.5105 89.6871C50.4438 89.6844 50.392 89.6282 50.3946 89.5615C50.3973 89.4948 50.4535 89.4429 50.5202 89.4456L50.5543 89.4465C50.8033 89.4518 51.144 89.4403 51.5435 89.3981C52.1512 89.3339 52.7518 89.2112 53.3119 89.0167C53.5434 88.9363 53.7643 88.8447 53.9732 88.7413Z" fill="#9B6160"/>
<path d="M53.8684 89.6956C53.9006 89.754 53.8793 89.8275 53.8209 89.8598L53.783 89.8797L53.7434 89.8995C53.6816 89.9299 53.6085 89.9637 53.5242 89.9999C53.2848 90.1029 53.004 90.2058 52.6836 90.3016C51.9665 90.5161 51.1577 90.6646 50.2657 90.7176C50.1991 90.7216 50.1419 90.6708 50.1379 90.6041C50.134 90.5375 50.1848 90.4803 50.2514 90.4763C51.1242 90.4245 51.9146 90.2794 52.6143 90.0701C52.9256 89.9769 53.1977 89.8773 53.4287 89.7779L53.5199 89.7376C53.5628 89.7182 53.6018 89.6998 53.6367 89.6826L53.7042 89.6481C53.7626 89.6159 53.8362 89.6371 53.8684 89.6956Z" fill="#9B6160"/>
<path d="M52.3354 90.8006C52.3989 90.78 52.467 90.8149 52.4876 90.8784C52.5081 90.9419 52.4733 91.01 52.4098 91.0305C51.6756 91.2681 51.0232 91.4207 50.4596 91.5052L50.3272 91.5241C50.0945 91.5555 49.9173 91.5695 49.7982 91.5728L49.739 91.5736C49.6714 91.5732 49.6177 91.5187 49.6182 91.4519C49.6186 91.3919 49.6628 91.3423 49.7203 91.3334L49.7399 91.3319L49.796 91.3308C49.8199 91.3299 49.8488 91.3284 49.8828 91.3263L49.9184 91.3239C50.0616 91.3137 50.2303 91.2952 50.4238 91.2662C50.9744 91.1837 51.6138 91.034 52.3354 90.8006Z" fill="#9B6160"/>
<path fill-rule="evenodd" clip-rule="evenodd" d="M30.1101 97.5942C30.1101 97.5942 27.2932 100.201 29.2268 103.101C31.1604 106.001 34.6969 104.243 34.6969 104.243C34.6969 104.243 37.2122 102.381 40.3218 100.099C42.2209 98.7054 44.2863 97.125 45.6217 95.7625C47.0674 94.2874 46.5663 93.2501 45.4316 91.6816C44.0842 89.8192 43.3375 89.1866 41.5193 90.1444C39.7855 91.0574 37.6292 92.5798 35.9045 93.6838C32.6167 95.7892 30.1101 97.5942 30.1101 97.5942Z" fill="#ADC6FF"/>
<path fill-rule="evenodd" clip-rule="evenodd" d="M47.939 92.5664L45.3148 88.9399L42.6758 90.4517L45.6774 94.6005L47.939 92.5664Z" fill="#ADC6FF"/>
<path d="M45.2541 88.8349C45.3017 88.8075 45.3609 88.8161 45.3989 88.8535L45.4121 88.8689L48.0363 92.4953C48.0685 92.5398 48.0662 92.5995 48.0331 92.6413L48.0192 92.656L46.6257 93.9094L46.626 93.9136C46.6558 94.5359 46.3881 95.1309 45.7725 95.7797L45.7076 95.847C44.548 97.0301 42.8636 98.3832 40.3931 100.196C40.3393 100.235 40.2637 100.224 40.2242 100.17C40.1847 100.116 40.1963 100.041 40.2501 100.001L40.6682 99.6931C42.9021 98.041 44.4536 96.7811 45.535 95.6778C46.1735 95.0264 46.4284 94.4586 46.3809 93.8685C46.3785 93.8384 46.3874 93.8089 46.4054 93.7853L46.4206 93.7689L47.7766 92.5488L45.2799 89.0984L43.7449 89.9782C43.7158 89.9948 43.6815 89.9985 43.6501 89.9891L43.6316 89.9818C43.0917 89.717 42.5002 89.7792 41.6554 90.2095L41.5755 90.2509C40.8862 90.614 39.5965 91.4184 37.7069 92.6482L36.2898 93.577C35.1759 94.3107 33.0799 95.6925 32.6753 95.9515C32.6191 95.9875 32.5443 95.9711 32.5083 95.9149C32.4724 95.8587 32.4888 95.7839 32.545 95.7479L32.8575 95.545L37.0015 92.82L37.6873 92.3726C39.5227 91.1794 40.7785 90.3975 41.4628 90.0371C42.3584 89.5655 43.0222 89.4637 43.6284 89.7152L43.6791 89.7372L45.2541 88.8349Z" fill="#597EF7"/>
<path d="M60.6709 91.5419C60.7298 91.5537 60.7701 91.6065 60.768 91.6646L60.7657 91.6841L58.1997 104.514L58.2385 104.559L58.2612 104.587C58.3386 104.682 58.4157 104.791 58.4878 104.912C59.0524 105.865 58.9748 106.908 57.8242 107.867C57.7729 107.909 57.6967 107.902 57.654 107.851C57.6113 107.8 57.6182 107.724 57.6695 107.681C58.7205 106.805 58.7884 105.894 58.2798 105.036C58.2142 104.925 58.1439 104.825 58.0737 104.739L58.0194 104.675C58.0042 104.658 57.9921 104.645 57.9836 104.637C57.9598 104.613 57.9473 104.58 57.9483 104.547L57.9506 104.527L60.5287 91.6367C60.5405 91.5778 60.5932 91.5376 60.6514 91.5396L60.6709 91.5419Z" fill="#597EF7"/>
</g>
<defs>
<linearGradient id="paint0_linear_823_57455" x1="148" y1="36.5" x2="148" y2="84.5" gradientUnits="userSpaceOnUse">
<stop stop-color="#5DB1FA"/>
<stop offset="1" stop-color="#457AEC"/>
</linearGradient>
<clipPath id="clip0_823_57455">
<rect width="160" height="160" fill="white" transform="translate(24 24.5)"/>
</clipPath>
</defs>
</svg>
