<svg width="240" height="248" viewBox="0 0 240 248" fill="none" xmlns="http://www.w3.org/2000/svg">
<g clip-path="url(#clip0_444_87726)">
<rect width="160" height="200" transform="translate(40 24)" fill="white"/>
<g opacity="0.15">
<path d="M135.383 29.8906H50.7969C48.0009 29.8906 45.7344 32.1572 45.7344 34.9531V199.273C45.7344 202.069 48.0009 204.336 50.7969 204.336H135.383C138.179 204.336 140.445 202.069 140.445 199.273V34.9531C140.445 32.1572 138.179 29.8906 135.383 29.8906Z" fill="#253368"/>
<path d="M52.4548 42.3359H133.514C134.663 42.3359 135.594 43.2671 135.594 44.4158V189.811C135.594 190.959 134.663 191.891 133.514 191.891H52.4548C51.3062 191.891 50.375 190.959 50.375 189.811V44.4158C50.375 43.2671 51.3062 42.3359 52.4548 42.3359Z" fill="white"/>
<path d="M51.8338 42.1251H134.147C134.946 42.1251 135.594 42.7696 135.594 43.5647V48.8751H50.375V43.5647C50.375 43.1807 50.5291 42.8127 50.803 42.5424C51.0769 42.272 51.448 42.1218 51.8338 42.1251Z" fill="#4E5C93"/>
<path d="M83.0703 37.6953C83.7693 37.6953 84.3359 37.1287 84.3359 36.4297C84.3359 35.7307 83.7693 35.1641 83.0703 35.1641C82.3713 35.1641 81.8047 35.7307 81.8047 36.4297C81.8047 37.1287 82.3713 37.6953 83.0703 37.6953Z" fill="white"/>
<path d="M135.594 48.2422H50.375V118.273H135.594V48.2422Z" fill="#E4EBF7"/>
<path d="M100.441 35.375H88.2699C87.7282 35.375 87.2891 35.8141 87.2891 36.3559V36.7145C87.2891 37.2562 87.7282 37.6953 88.2699 37.6953H100.441C100.983 37.6953 101.422 37.2562 101.422 36.7145V36.3559C101.422 35.8141 100.983 35.375 100.441 35.375Z" fill="white"/>
<path d="M107.645 98.8672C118.77 98.8672 127.789 89.801 127.789 78.6172C127.789 67.4334 118.77 58.3672 107.645 58.3672C96.519 58.3672 87.5 67.4334 87.5 78.6172C87.5 89.801 96.519 98.8672 107.645 98.8672Z" fill="white"/>
<path d="M50.375 118.484L67.6048 90.3929C68.1122 89.5663 68.9798 89.0285 69.9448 88.9426C70.9098 88.8567 71.8586 89.2328 72.5036 89.9568L83.6371 102.464C84.4217 103.346 85.5686 103.816 86.7455 103.738C87.9223 103.66 88.9974 103.042 89.6592 102.065L104.823 79.6654C105.487 78.685 106.566 78.0672 107.746 77.9921C108.927 77.917 110.075 78.3929 110.857 79.2813L135.594 107.39V118.484H50.375Z" fill="#4E5C93"/>
<path d="M71.8906 55.3086C72.1819 55.3086 72.418 55.5447 72.418 55.8359C72.418 56.116 72.1997 56.345 71.924 56.3622L71.8906 56.3633H56.0703C55.7791 56.3633 55.543 56.1272 55.543 55.8359C55.543 55.5559 55.7613 55.3268 56.037 55.3096L56.0703 55.3086H71.8906Z" fill="#4E5C93"/>
<path d="M66.1953 59.3164C66.4866 59.3164 66.7227 59.5525 66.7227 59.8438C66.7227 60.1238 66.5044 60.3529 66.2287 60.3701L66.1953 60.3711H56.0703C55.7791 60.3711 55.543 60.135 55.543 59.8438C55.543 59.5637 55.7613 59.3346 56.037 59.3174L56.0703 59.3164H66.1953Z" fill="#4E5C93"/>
<path d="M129.055 130.508C129.346 130.508 129.582 130.744 129.582 131.035C129.582 131.315 129.364 131.544 129.088 131.561L129.055 131.563H58.1797C57.8884 131.563 57.6523 131.326 57.6523 131.035C57.6523 130.755 57.8706 130.526 58.1463 130.509L58.1797 130.508H129.055Z" fill="#A3B5D6"/>
<path d="M129.055 138.523C129.346 138.523 129.582 138.76 129.582 139.051C129.582 139.331 129.364 139.56 129.088 139.577L129.055 139.578H58.1797C57.8884 139.578 57.6523 139.342 57.6523 139.051C57.6523 138.771 57.8706 138.542 58.1463 138.524L58.1797 138.523H129.055Z" fill="#A3B5D6"/>
<path d="M127.578 146.117C127.869 146.117 128.105 146.353 128.105 146.645C128.105 146.925 127.887 147.154 127.611 147.171L127.578 147.172H58.1797C57.8884 147.172 57.6523 146.936 57.6523 146.645C57.6523 146.364 57.8706 146.135 58.1463 146.118L58.1797 146.117H127.578Z" fill="#A3B5D6"/>
<path d="M74.6328 158.773H58.6016C57.6696 158.773 56.9141 159.529 56.9141 160.461V176.492C56.9141 177.424 57.6696 178.18 58.6016 178.18H74.6328C75.5648 178.18 76.3203 177.424 76.3203 176.492V160.461C76.3203 159.529 75.5648 158.773 74.6328 158.773Z" fill="#A3B5D6"/>
<path d="M100.789 158.773H84.7578C83.8258 158.773 83.0703 159.529 83.0703 160.461V176.492C83.0703 177.424 83.8258 178.18 84.7578 178.18H100.789C101.721 178.18 102.477 177.424 102.477 176.492V160.461C102.477 159.529 101.721 158.773 100.789 158.773Z" fill="#4E5C93"/>
<path d="M126.945 158.773H110.914C109.982 158.773 109.227 159.529 109.227 160.461V176.492C109.227 177.424 109.982 178.18 110.914 178.18H126.945C127.877 178.18 128.633 177.424 128.633 176.492V160.461C128.633 159.529 127.877 158.773 126.945 158.773Z" fill="#CCD7EE"/>
<path d="M59.5508 133.672C60.774 133.672 61.7656 132.68 61.7656 131.457C61.7656 130.234 60.774 129.242 59.5508 129.242C58.3276 129.242 57.3359 130.234 57.3359 131.457C57.3359 132.68 58.3276 133.672 59.5508 133.672Z" fill="#A3B5D6"/>
<path d="M90.1367 141.266C91.3599 141.266 92.3516 140.274 92.3516 139.051C92.3516 137.828 91.3599 136.836 90.1367 136.836C88.9135 136.836 87.9219 137.828 87.9219 139.051C87.9219 140.274 88.9135 141.266 90.1367 141.266Z" fill="#A3B5D6"/>
<path d="M120.934 148.648C122.157 148.648 123.148 147.657 123.148 146.434C123.148 145.21 122.157 144.219 120.934 144.219C119.71 144.219 118.719 145.21 118.719 146.434C118.719 147.657 119.71 148.648 120.934 148.648Z" fill="#A3B5D6"/>
</g>
<path fill-rule="evenodd" clip-rule="evenodd" d="M156.434 86.918C147.735 86.918 140.684 93.9695 140.684 102.668V102.708C140.684 111.407 147.735 118.458 156.434 118.458H179.66C180.528 118.458 181.379 118.388 182.209 118.253L186.708 122.6C186.831 122.718 186.994 122.784 187.164 122.784C187.527 122.784 187.821 122.49 187.821 122.128L187.821 116.182C192.371 113.42 195.41 108.419 195.41 102.708V102.668C195.41 93.9695 188.359 86.918 179.66 86.918H156.434Z" fill="#253368"/>
<path d="M160.254 49.1836H127.09C114.663 49.1836 104.59 59.2572 104.59 71.6836C104.59 84.11 114.663 94.1836 127.09 94.1836H160.254C172.68 94.1836 182.754 84.11 182.754 71.6836C182.754 59.2572 172.68 49.1836 160.254 49.1836Z" fill="#597EF7"/>
<path fill-rule="evenodd" clip-rule="evenodd" d="M115.43 87.6387V99.4176C115.43 99.9354 115.849 100.355 116.367 100.355C116.61 100.355 116.843 100.261 117.018 100.092L125.674 91.7406L115.43 87.6387Z" fill="#597EF7"/>
<path d="M128.613 74.4961C130.62 74.4961 132.246 72.8696 132.246 70.8633C132.246 68.8569 130.62 67.2305 128.613 67.2305C126.607 67.2305 124.98 68.8569 124.98 70.8633C124.98 72.8696 126.607 74.4961 128.613 74.4961Z" fill="white"/>
<path d="M143.496 74.4961C145.502 74.4961 147.129 72.8696 147.129 70.8633C147.129 68.8569 145.502 67.2305 143.496 67.2305C141.49 67.2305 139.863 68.8569 139.863 70.8633C139.863 72.8696 141.49 74.4961 143.496 74.4961Z" fill="white"/>
<path d="M158.73 74.4961C160.737 74.4961 162.363 72.8696 162.363 70.8633C162.363 68.8569 160.737 67.2305 158.73 67.2305C156.724 67.2305 155.098 68.8569 155.098 70.8633C155.098 72.8696 156.724 74.4961 158.73 74.4961Z" fill="white"/>
<path fill-rule="evenodd" clip-rule="evenodd" d="M78.2438 80.895C78.2438 80.895 87.5535 82.1659 87.7634 87.4673C87.8714 90.1939 85.2923 93.2316 86.605 94.0277C91.7354 97.1402 86.2883 98.6345 89.5567 101.159C94.4182 104.914 91.6953 111.636 86.6567 111.34C81.4374 111.033 84.1314 118.341 75.1061 116.487C70.0194 115.442 68.515 114.371 64.8781 112.687C61.2416 111.003 58.776 101.707 63.0595 96.9818C65.7205 93.9929 68.3508 94.204 69.7388 89.3163C71.1268 84.4289 72.5109 81.4186 74.9244 81.7484C75.7642 80.4715 78.2438 80.895 78.2438 80.895Z" fill="#253368"/>
<path fill-rule="evenodd" clip-rule="evenodd" d="M83.9831 92.2266C84.0053 92.124 84.1477 92.1138 84.1846 92.2125C84.5084 93.0845 85.292 95.4412 84.3618 95.5828C83.3124 95.7426 83.7796 93.1656 83.9831 92.2266Z" fill="white"/>
<path fill-rule="evenodd" clip-rule="evenodd" d="M75.6234 99.6946C76.5114 95.5433 76.632 93.8885 76.632 93.8885L81.7142 96.0181L81.4182 100.505C81.3092 102.157 79.853 103.391 78.2035 103.229C76.4594 103.058 75.257 101.407 75.6234 99.6946Z" fill="#F4B784"/>
<path fill-rule="evenodd" clip-rule="evenodd" d="M78.1065 86.5209C78.1065 86.5209 78.6384 84.8412 79.8119 85.5766C80.6507 86.1023 80.4095 85.6458 80.567 85.192C81.151 83.5074 81.6945 87.3525 84.3576 88.0577C84.5158 90.1209 84.9271 97.5876 80.4468 97.4229C78.9998 97.3699 76.5543 96.6609 75.5218 94.1935C74.8977 92.7027 75.2676 91.1186 75.8603 90.7772C77.8126 89.6524 77.7173 88.6087 78.1065 86.5209Z" fill="#FFC999"/>
<path d="M81.8983 88.1528C81.9635 88.1681 82.0064 88.2284 82.0019 88.2931L81.9986 88.3147L81.7498 89.3699L81.7682 89.557L81.7853 89.7115C81.8008 89.8462 81.8196 89.9956 81.8421 90.159C81.9319 90.8135 82.0602 91.5568 82.2337 92.3746C82.247 92.4371 82.2145 92.5003 82.156 92.5259C81.8515 92.6591 81.5404 92.744 81.2374 92.7901C81.068 92.816 80.9284 92.8262 80.8287 92.8273L80.7885 92.8272C80.7141 92.8255 80.6551 92.7639 80.6568 92.6895C80.6583 92.6226 80.7085 92.5682 80.7728 92.5592L80.7947 92.5579H80.8272L80.8998 92.5555C80.9795 92.5513 81.0799 92.5417 81.1967 92.5239C81.4074 92.4918 81.6224 92.4394 81.8355 92.3633L81.9469 92.321L81.9304 92.2415C81.7882 91.5538 81.6783 90.9203 81.5965 90.3496L81.5749 90.1956C81.5477 89.997 81.5257 89.8188 81.5083 89.6619L81.4882 89.4681L81.4795 89.3699L81.4826 89.3287L81.7361 88.253C81.7515 88.1879 81.8118 88.145 81.8766 88.1495L81.8983 88.1528Z" fill="#DD936F"/>
<path d="M79.0349 92.8258C79.0704 92.7318 79.1755 92.6844 79.2696 92.7199L79.3909 92.7629C79.4131 92.7704 79.4375 92.7786 79.4641 92.7873C79.6202 92.8387 79.7923 92.8902 79.9751 92.9382C80.358 93.0388 80.7348 93.1105 81.0849 93.1407C81.3659 93.165 81.62 93.1614 81.8405 93.1269C81.9399 93.1113 82.033 93.1792 82.0486 93.2784C82.0642 93.3777 81.9962 93.4708 81.8969 93.4863C81.6446 93.5258 81.3618 93.5298 81.0535 93.5032C80.6804 93.471 80.284 93.3956 79.8824 93.2901C79.6921 93.2401 79.5129 93.1865 79.3501 93.1329L79.2089 93.0849C79.1806 93.075 79.1578 93.0667 79.1409 93.0603C79.0468 93.0248 78.9994 92.9198 79.0349 92.8258Z" fill="#C44343"/>
<path d="M81.8023 87.9444C82.8077 87.5776 83.5728 87.5007 84.103 87.593C84.1784 87.6061 84.2314 87.62 84.2622 87.6308C84.3537 87.6631 84.4018 87.7634 84.3695 87.8548C84.3399 87.9386 84.2531 87.986 84.1683 87.9684L84.1256 87.9562C84.1076 87.9516 84.08 87.9454 84.0427 87.9389C83.5745 87.8575 82.8717 87.9281 81.923 88.2743C81.8318 88.3075 81.7308 88.2607 81.6975 88.1696C81.6642 88.0785 81.7112 87.9777 81.8023 87.9444Z" fill="#253368"/>
<path d="M77.9344 87.6433C78.4728 87.5934 79.0519 87.599 79.5997 87.6991C79.8754 87.7495 80.1308 87.8226 80.3615 87.9211C80.4507 87.9592 80.4922 88.0624 80.454 88.1516C80.4158 88.2407 80.3125 88.2821 80.2233 88.244C80.0183 88.1565 79.7878 88.0905 79.5364 88.0446C79.025 87.9511 78.476 87.9457 77.9669 87.993L77.8528 88.0046C77.7972 88.0109 77.7551 88.0165 77.7282 88.0207C77.6323 88.0357 77.5423 87.9702 77.5273 87.8744C77.5123 87.7786 77.5779 87.6888 77.6738 87.6738L77.7448 87.664L77.8339 87.6535C77.8656 87.65 77.8991 87.6466 77.9344 87.6433Z" fill="#253368"/>
<path d="M80.7991 94.1993C80.8735 94.1974 80.9354 94.2562 80.9372 94.3306C80.9388 94.3975 80.8913 94.4542 80.8275 94.4662L80.8057 94.4685L80.3188 94.4805C80.2444 94.4823 80.1825 94.4235 80.1807 94.3491C80.1791 94.2822 80.2266 94.2255 80.2904 94.2135L80.3122 94.2112L80.7991 94.1993Z" fill="#DD936F"/>
<path fill-rule="evenodd" clip-rule="evenodd" d="M72.8299 91.9446C72.3912 90.213 74.0741 90.2555 74.0741 90.2555C74.0741 90.2555 74.1732 91.9942 74.689 93.5323C73.0043 93.5453 72.8299 91.9446 72.8299 91.9446Z" fill="#FFC999"/>
<path fill-rule="evenodd" clip-rule="evenodd" d="M73.8245 93.1324C73.8467 93.0295 73.9891 93.0197 74.026 93.1184C74.3498 93.9904 75.1334 96.3468 74.2032 96.4887C73.1537 96.6485 73.621 94.0715 73.8245 93.1324Z" fill="white"/>
<path d="M82.4271 89.9583C82.5242 89.9605 82.601 90.0409 82.5988 90.1379C82.5913 90.4656 82.766 90.7176 82.9566 90.7218C83.1475 90.7262 83.3336 90.4826 83.3411 90.1548C83.3433 90.0578 83.4238 89.981 83.5208 89.9832C83.6179 89.9855 83.6947 90.0658 83.6925 90.1628C83.681 90.6648 83.3621 91.0825 82.9486 91.0729C82.5353 91.0637 82.2359 90.6318 82.2473 90.1298C82.2496 90.0329 82.33 89.9561 82.4271 89.9583Z" fill="#253368"/>
<path d="M78.4595 90.0044C78.5565 90.0067 78.6334 90.087 78.6312 90.184C78.6237 90.5117 78.7983 90.7635 78.989 90.7679C79.1799 90.7723 79.3659 90.5287 79.3734 90.2009C79.3756 90.104 79.4561 90.0272 79.5532 90.0294C79.6502 90.0316 79.7271 90.112 79.7249 90.2089C79.7134 90.7109 79.3944 91.1286 78.9808 91.119C78.5675 91.1094 78.2682 90.6778 78.2797 90.176C78.2819 90.079 78.3624 90.0022 78.4595 90.0044Z" fill="#253368"/>
<path fill-rule="evenodd" clip-rule="evenodd" d="M99.9476 119.733C99.9476 119.733 93.1224 108.621 91.5868 106.695C87.8771 102.043 84.1442 103.206 83.3686 106.509C82.4342 110.491 95.2961 123.687 95.2961 123.687C95.2961 123.687 96.8774 125.589 99.2396 124.185C102.032 122.526 99.9476 119.733 99.9476 119.733Z" fill="#FFC999"/>
<path fill-rule="evenodd" clip-rule="evenodd" d="M95.4973 112.119C94.7784 111.118 89.6832 101.362 85.687 103.899C82.3014 106.049 83.0942 109.492 88.7361 116.339L95.4973 112.119Z" fill="#597EF7"/>
<path fill-rule="evenodd" clip-rule="evenodd" d="M108.266 103.154C104.286 114.842 103.649 117.88 101.722 121.475C98.5223 127.445 93.7635 124.421 95.0116 120.867C95.7948 118.637 98.3553 114.664 100.21 111.021C102.826 105.886 104.894 102.215 104.894 102.215L108.266 103.154Z" fill="#FFC999"/>
<path d="M97.6466 115.891C97.6839 115.826 97.7663 115.804 97.8308 115.842C97.8888 115.875 97.9125 115.945 97.8895 116.006L97.8801 116.026L95.8157 119.595C95.7785 119.659 95.696 119.681 95.6315 119.644C95.5735 119.611 95.5498 119.541 95.5728 119.48L95.5823 119.46L97.6466 115.891Z" fill="#DD936F"/>
<path fill-rule="evenodd" clip-rule="evenodd" d="M104.826 102.365L107.18 95.7041C107.18 95.7041 110.678 90.401 111.793 90.8115C112.819 91.3404 110.333 92.7637 109.76 94.2885C110.77 94.2808 110.218 95.7445 110.218 95.7445C110.218 95.7445 111.02 95.7663 110.727 96.9691C111.442 97.4554 110.757 98.8135 110.757 98.8135C110.757 98.8135 109.031 102.395 107.221 104.743C107.221 104.743 104.344 106.684 104.826 102.365Z" fill="#FFC999"/>
<path fill-rule="evenodd" clip-rule="evenodd" d="M105.399 100.1C105.399 100.1 105.834 97.7924 106.124 96.6208C106.414 95.4493 106.05 93.2773 106.878 93.8996C107.436 94.3178 107.254 95.5845 107.173 96.5222C107.092 97.4595 108.468 99.7815 107.238 101.25C106.408 102.242 105.194 102.302 105.399 100.1Z" fill="#FFC999"/>
<path d="M109.669 94.1898C109.724 94.1392 109.809 94.1425 109.859 94.1971C109.91 94.2517 109.907 94.3369 109.852 94.3874L109.791 94.4458C109.741 94.4936 109.686 94.5483 109.626 94.6088C109.455 94.7819 109.284 94.9671 109.125 95.1566C108.963 95.3498 108.823 95.5367 108.71 95.7127C108.361 96.2574 108.321 96.6091 108.62 96.7564C108.687 96.7893 108.714 96.8701 108.681 96.9368C108.648 97.0035 108.567 97.0308 108.501 96.9979C108 96.7509 108.058 96.2301 108.483 95.5674C108.602 95.3808 108.75 95.185 108.919 94.9836C109.083 94.788 109.258 94.5976 109.434 94.4198L109.522 94.331L109.65 94.2079C109.658 94.2004 109.664 94.1943 109.669 94.1898Z" fill="#DD936F"/>
<path d="M110.232 95.7086C110.274 95.7704 110.257 95.8541 110.195 95.8955L110.132 95.9389C110.081 95.9745 110.024 96.0154 109.963 96.0607C109.788 96.1903 109.613 96.3297 109.45 96.4732C109.26 96.6402 109.1 96.8017 108.978 96.9525C108.708 97.2869 108.666 97.5079 108.847 97.6352C108.944 97.7032 109.061 97.7149 109.203 97.6743C109.356 97.6308 109.527 97.5299 109.702 97.3888C109.79 97.3181 109.873 97.242 109.948 97.166L110.03 97.08C110.035 97.0749 110.039 97.0705 110.042 97.0667C110.091 97.0105 110.176 97.0045 110.232 97.0533C110.289 97.102 110.295 97.1871 110.246 97.2432L110.214 97.2785C110.195 97.2996 110.17 97.3257 110.14 97.3557C110.058 97.4384 109.967 97.521 109.871 97.5985C109.67 97.7603 109.471 97.8782 109.277 97.9333C109.062 97.9947 108.861 97.9747 108.692 97.8554C108.341 97.608 108.414 97.2228 108.768 96.7836C108.9 96.6194 109.071 96.4475 109.271 96.2711C109.441 96.1221 109.622 95.9781 109.803 95.8443L109.894 95.7776L110.045 95.6717C110.107 95.6303 110.191 95.6469 110.232 95.7086Z" fill="#DD936F"/>
<path d="M110.441 96.9066C110.516 96.8997 110.581 96.9542 110.588 97.0282C110.595 97.1023 110.54 97.1679 110.466 97.1748C110.308 97.1895 110.096 97.3198 109.833 97.5915C109.283 98.1605 109.154 98.5358 109.291 98.6281C109.437 98.7262 109.818 98.5812 110.078 98.255C110.183 98.1242 110.385 98.2633 110.3 98.4074C110.003 98.9099 109.672 99.2768 109.288 99.5572L109.186 99.6298C108.991 99.7649 108.834 99.848 108.486 100.007L108.222 100.126C107.407 100.49 107.089 100.791 106.867 101.619C106.848 101.691 106.774 101.734 106.702 101.715C106.63 101.695 106.587 101.622 106.607 101.55C106.846 100.657 107.209 100.295 108.04 99.9126L108.422 99.74C108.773 99.5782 108.908 99.5008 109.129 99.3397C109.294 99.219 109.449 99.0807 109.596 98.9197L109.619 98.8934L109.588 98.9019C109.433 98.9408 109.286 98.9333 109.171 98.8701L109.14 98.8515C108.799 98.622 108.985 98.0801 109.639 97.4043C109.942 97.0907 110.206 96.9284 110.441 96.9066Z" fill="#DD936F"/>
<path d="M107.271 95.2155C107.338 95.2142 107.395 95.262 107.406 95.3257L107.409 95.3476L107.442 97.1137L107.477 97.184L107.503 97.2407C107.558 97.3628 107.614 97.4989 107.665 97.6457C107.822 98.0918 107.913 98.5404 107.902 98.9634C107.893 99.3454 107.8 99.6875 107.609 99.9765C107.568 100.039 107.484 100.056 107.422 100.015C107.36 99.9741 107.343 99.8905 107.384 99.8284C107.544 99.5847 107.624 99.2913 107.633 98.9566C107.642 98.5709 107.558 98.1528 107.411 97.7351C107.362 97.596 107.31 97.4672 107.257 97.3521L107.217 97.2649C107.205 97.2412 107.196 97.223 107.189 97.2107C107.183 97.1982 107.178 97.1848 107.176 97.171L107.173 97.15L107.139 95.3527C107.138 95.2783 107.197 95.2169 107.271 95.2155Z" fill="#DD936F"/>
<path fill-rule="evenodd" clip-rule="evenodd" d="M82.3528 179.089C82.3451 178.996 88.1181 209.82 88.0541 211.486C87.8805 216.033 87.6962 216.665 90.0788 217.966C90.6891 218.299 91.6422 217.987 92.5847 219.133C95.1652 222.27 99.0419 224.14 99.6079 222.417C99.9932 220.799 93.8342 215.351 93.3307 211.954C92.8076 208.426 91.5666 177.251 90.9025 174.203C89.7145 168.753 81.1428 159.684 82.3528 179.089Z" fill="#FFC999"/>
<path fill-rule="evenodd" clip-rule="evenodd" d="M88.489 218.489C88.489 218.489 87.4322 215.961 88.0587 212.957C88.0587 212.957 90.398 214.935 92.1049 217.054C94.0757 219.5 94.5721 219.64 94.5721 219.64C97.1392 220.551 97.7851 219.088 97.7851 219.088C97.7851 219.088 99.1287 220.966 101.722 223.034C104.044 224.887 94.7338 224.872 93.5561 222.476C92.3784 220.08 90.7566 218.643 90.7566 218.643L89.8851 222.167L89.0009 222.107L88.489 218.489Z" fill="#253368"/>
<path fill-rule="evenodd" clip-rule="evenodd" d="M92.3576 167.572L94.7265 204.082L79.5344 204.579C79.5344 204.579 78.7068 186.835 78.1359 168.634C78.1359 168.634 77.1916 159.166 84.7013 158.757C92.211 158.347 92.3576 167.572 92.3576 167.572Z" fill="#E4EBF7"/>
<path fill-rule="evenodd" clip-rule="evenodd" d="M92.1467 167.76C91.5202 153.094 89.8453 137.424 88.4546 134.241C88.4546 134.241 86.7811 132.333 81.9109 135.488C76.2321 139.168 77.3431 143.814 77.3431 143.814L78.2353 168.53C78.3855 170.468 79.0773 176.481 86.5255 175.586C93.8567 174.704 92.1604 168.079 92.1467 167.76Z" fill="#E4EBF7"/>
<path fill-rule="evenodd" clip-rule="evenodd" d="M74.2904 125.557C77.098 126.469 84.3321 126.542 85.2092 126.242C86.086 125.942 85.4262 124.272 85.4262 124.272C89.2958 115.616 89.2413 115.746 89.5018 113.924C89.7602 112.115 88.3715 108.844 88.3715 108.844C88.3715 108.844 89.6017 105.404 89.222 104.387C88.7087 103.013 83.6736 103.225 82.7694 102.669C81.8652 102.113 81.9749 100.321 81.9749 100.321L75.0878 99.6285C75.0878 99.6285 74.8839 101.655 74.4623 102.251C73.6425 103.408 71.0958 101.996 69.0697 104.309C65.449 108.443 71.7803 117.268 73.8394 122.932C73.8394 122.932 72.8715 124.199 74.2904 125.557Z" fill="#597EF7"/>
<path d="M76.6377 102.503L82.4248 103.289C82.521 103.302 82.5884 103.391 82.5753 103.487C82.5633 103.575 82.4879 103.639 82.4013 103.639L82.3774 103.637L76.5904 102.851C76.4942 102.838 76.4268 102.75 76.4399 102.653C76.4518 102.565 76.5273 102.501 76.6139 102.501L76.6377 102.503Z" fill="#253368"/>
<path d="M78.029 103.534L82.0463 104.392C82.1413 104.412 82.2018 104.506 82.1815 104.6C82.1629 104.687 82.0829 104.745 81.9965 104.739L81.9729 104.735L77.9556 103.878C77.8606 103.858 77.8001 103.764 77.8204 103.67C77.839 103.583 77.919 103.525 78.0054 103.531L78.029 103.534Z" fill="#253368"/>
<path d="M74.7709 112.651C74.8419 112.585 74.9531 112.589 75.0193 112.66L75.0473 112.688C75.0865 112.727 75.1487 112.783 75.2338 112.852C75.4189 113.001 75.6412 113.152 75.9002 113.292C76.9241 113.848 78.1868 114.091 79.6894 113.844L79.8188 113.821C80.3673 113.722 81.6601 113.736 83.4933 113.834L84.0039 113.863C84.2633 113.878 84.5285 113.895 84.7984 113.913L85.0697 113.931C85.5583 113.964 86.0379 113.999 86.4941 114.035L87.3938 114.108C87.4905 114.116 87.5621 114.201 87.5537 114.298C87.5453 114.394 87.4601 114.466 87.3634 114.458L86.7996 114.411L86.2374 114.367C85.852 114.338 85.452 114.309 85.0458 114.281L84.5079 114.246C84.242 114.229 83.9812 114.213 83.7268 114.199L83.1215 114.167C81.5459 114.089 80.4124 114.081 79.9168 114.161L79.8817 114.167C78.2402 114.465 76.8535 114.21 75.7323 113.601C75.4538 113.45 75.2138 113.287 75.0125 113.125L74.9366 113.062C74.8548 112.992 74.7966 112.936 74.7622 112.899C74.696 112.828 74.6999 112.717 74.7709 112.651Z" fill="#253368"/>
<path d="M88.2609 106.645C88.3498 106.642 88.4256 106.706 88.4402 106.791L88.4426 106.815L88.5134 108.876L88.5511 108.964C88.5914 109.059 88.6362 109.169 88.6845 109.29C88.8222 109.637 88.96 110.013 89.0886 110.403C89.2627 110.932 89.4062 111.447 89.5089 111.933C89.6392 112.551 89.6989 113.1 89.6747 113.566C89.6363 114.305 89.4305 115.239 89.0886 116.326C88.9209 116.859 88.7235 117.419 88.5025 117.997C88.246 118.667 87.9713 119.325 87.6966 119.945L87.5577 120.255L87.3825 120.635C87.359 120.685 87.3411 120.723 87.3295 120.747C87.2875 120.834 87.1824 120.871 87.0949 120.829C87.0074 120.787 86.9706 120.682 87.0127 120.595L87.1119 120.384L87.2375 120.11C87.2815 120.013 87.3275 119.91 87.3751 119.803C87.6475 119.188 87.9199 118.535 88.1741 117.871C88.3927 117.3 88.5878 116.747 88.7532 116.221C89.087 115.159 89.287 114.251 89.3236 113.548C89.346 113.117 89.2894 112.596 89.1649 112.006C89.0651 111.533 88.9249 111.03 88.7546 110.513C88.6494 110.194 88.5378 109.884 88.4253 109.593L88.3577 109.42C88.3198 109.324 88.2841 109.237 88.2512 109.158L88.1782 108.986C88.1722 108.973 88.1679 108.958 88.1655 108.944L88.1633 108.921L88.0913 106.827C88.0879 106.73 88.1639 106.648 88.2609 106.645Z" fill="#253368"/>
<path fill-rule="evenodd" clip-rule="evenodd" d="M82.8239 144.829L89.37 138.61C89.37 138.61 88.5976 131.474 85.4806 128.155L73.5694 126.839C73.5694 126.839 68.6412 129.241 66.337 138.277L76.8624 144.43L82.8239 144.829Z" fill="#E4EBF7"/>
<path fill-rule="evenodd" clip-rule="evenodd" d="M73.28 126.957L85.4807 128.156L85.3179 126.264L73.8302 125.051L73.28 126.957Z" fill="#E4EBF7"/>
<path d="M81.2218 127.844C81.2946 127.841 81.3559 127.898 81.3588 127.97C81.4056 129.134 81.4137 130.391 81.3866 131.729C81.3366 134.205 81.1697 136.854 80.9227 139.529L80.8738 140.048C80.7916 140.904 80.7055 141.714 80.6192 142.466L80.5502 143.052L80.4433 143.904C80.4336 143.976 80.3673 144.027 80.2951 144.017C80.2229 144.007 80.1723 143.941 80.182 143.869L80.2482 143.35C80.2741 143.142 80.3019 142.91 80.3313 142.659L80.3831 142.209C80.4778 141.371 80.5716 140.464 80.6602 139.505C80.9066 136.835 81.0731 134.192 81.123 131.723C81.15 130.391 81.1419 129.139 81.0954 127.981C81.0924 127.908 81.1491 127.847 81.2218 127.844Z" fill="#A3B5D6"/>
<path d="M73.3176 126.925L85.2796 128.036C85.3521 128.042 85.4054 128.107 85.3986 128.179C85.3926 128.244 85.3399 128.294 85.2766 128.298L85.2552 128.298L73.2932 127.187C73.2207 127.18 73.1674 127.116 73.1742 127.044C73.1802 126.979 73.2329 126.929 73.2962 126.925L73.3176 126.925Z" fill="#A3B5D6"/>
<path fill-rule="evenodd" clip-rule="evenodd" d="M73.136 186.002C73.1501 185.91 70.5052 208.995 70.4553 210.662C70.32 215.211 70.8252 215.85 68.3597 216.987C67.7283 217.278 66.7984 216.902 65.7802 217.982C62.9927 220.936 58.9979 222.539 58.55 220.782C58.2754 219.141 64.7906 214.124 65.524 210.769C66.2854 207.284 62.594 180.004 65.0578 178.088C67.5219 176.172 72.8537 166.852 73.136 186.002Z" fill="#FFC999"/>
<path fill-rule="evenodd" clip-rule="evenodd" d="M69.9102 217.617C69.9102 217.617 70.7722 215.169 70.351 212.13C70.351 212.13 68.2473 213.942 66.4005 215.94C64.2679 218.247 63.7627 218.353 63.7627 218.353C61.1401 219.088 60.5948 217.584 60.5948 217.584C60.5948 217.584 59.1267 219.367 56.3993 221.255C53.957 222.945 63.2459 223.562 64.584 221.251C65.9217 218.941 67.6377 217.616 67.6377 217.616L68.2673 221.192L69.1539 221.192L69.9102 217.617Z" fill="#253368"/>
<path fill-rule="evenodd" clip-rule="evenodd" d="M63.7968 163.858L60.6176 203.592L74.6818 204.751C74.6818 204.751 77.1484 183.329 78.0006 165.139C78.0006 165.139 79.0911 155.687 71.5888 155.162C64.0861 154.637 63.7968 163.858 63.7968 163.858Z" fill="#E4EBF7"/>
<path fill-rule="evenodd" clip-rule="evenodd" d="M77.9273 164.47C79.5469 149.88 80.3112 133.775 79.4221 130.417C79.4221 130.417 78.0598 128.277 72.7649 130.654C66.5908 133.425 66.3953 138.674 66.3953 138.674L63.7062 163.029C63.5586 164.968 62.9679 170.603 70.3996 171.621C77.7153 172.623 77.8921 164.787 77.9273 164.47Z" fill="#E4EBF7"/>
<path fill-rule="evenodd" clip-rule="evenodd" d="M68.5851 122.982C68.5851 122.982 73.3533 112.744 74.0951 110.193C75.8856 104.033 73.1101 102.831 69.9224 104.241C66.0799 105.941 61.4224 122.673 61.4224 122.673C61.4224 122.673 61.01 124.795 63.5068 125.963C66.4578 127.344 68.5851 122.982 68.5851 122.982Z" fill="#FFC999"/>
<path fill-rule="evenodd" clip-rule="evenodd" d="M71.4558 116.753C71.8643 115.59 78.3067 105.733 72.6905 103.23C69.0269 101.597 67.0511 104.96 63.8434 113.584L71.4558 116.753Z" fill="#597EF7"/>
<path fill-rule="evenodd" clip-rule="evenodd" d="M86.3792 124.072C86.2734 125.143 85.3832 125.966 84.3067 125.989L65.3782 126.397C63.2045 126.444 61.465 124.607 61.632 122.442C61.7951 120.325 63.7146 118.787 65.8184 119.087L84.5616 121.758C85.6901 121.919 86.4913 122.939 86.3792 124.072Z" fill="#FFC999"/>
<path fill-rule="evenodd" clip-rule="evenodd" d="M84.8299 128.934L88.9914 115.931C89.0603 115.716 89.2582 115.57 89.4835 115.566L101.153 115.409C101.515 115.404 101.773 115.759 101.656 116.102L97.3114 128.76C97.2418 128.964 97.0541 129.104 96.8389 129.113L85.352 129.617C84.9878 129.632 84.7188 129.281 84.8299 128.934Z" fill="#253368"/>
<path fill-rule="evenodd" clip-rule="evenodd" d="M85.445 128.776L89.534 115.998C89.6173 115.739 89.8571 115.562 90.1299 115.558L101.944 115.398C102.197 115.394 102.378 115.643 102.295 115.883L97.8907 128.716C97.8133 128.942 97.6059 129.097 97.3675 129.107L86.0771 129.602C85.6359 129.621 85.3107 129.196 85.445 128.776Z" fill="#253368"/>
<path fill-rule="evenodd" clip-rule="evenodd" d="M91.1338 116.789C91.2657 116.936 91.2182 117.194 91.0277 117.365C90.8368 117.536 90.5752 117.556 90.443 117.41C90.3108 117.263 90.3583 117.005 90.5492 116.833C90.7397 116.662 91.0017 116.642 91.1338 116.789Z" fill="#ADC6FF"/>
<path fill-rule="evenodd" clip-rule="evenodd" d="M90.977 116.942C91.0455 117.019 91.0209 117.152 90.9218 117.242C90.823 117.33 90.6869 117.341 90.6184 117.265C90.5498 117.188 90.5744 117.055 90.6735 116.966C90.7723 116.877 90.9084 116.866 90.977 116.942Z" fill="#E4EBF7"/>
<path fill-rule="evenodd" clip-rule="evenodd" d="M90.0246 126.489C90.695 126.424 91.048 126.144 90.9843 125.586C91.7908 125.333 91.7005 124.651 91.7005 124.651C91.7005 124.651 93.253 124.627 93.5142 123.964C93.6154 123.707 93.4186 123.431 93.1426 123.413C89.8168 123.188 87.4455 121.427 87.4455 121.427C87.4455 121.427 88.7526 119.509 88.6144 118.624C88.5737 118.362 88.2309 118.278 88.0709 118.489C86.6998 120.297 83.9503 121.714 83.9503 121.714C83.9503 121.714 80.6498 124.803 84.2301 126.203C84.2301 126.203 86.9589 127.29 88.8595 127.152C89.7588 127.087 90.0246 126.489 90.0246 126.489Z" fill="#FFC999"/>
<path d="M89.2546 124.062C89.2824 124.012 89.3452 123.994 89.3948 124.022C89.633 124.155 89.9114 124.263 90.2219 124.349C90.5917 124.451 90.9888 124.516 91.3884 124.552C91.5892 124.569 91.7605 124.578 91.8896 124.58L91.983 124.58C92.0399 124.579 92.0866 124.625 92.0874 124.681C92.0881 124.732 92.0522 124.774 92.0043 124.784L91.9858 124.786L91.9356 124.786C91.7968 124.785 91.6024 124.777 91.3702 124.757C90.9591 124.72 90.5501 124.653 90.1671 124.547C89.8416 124.458 89.5481 124.343 89.2943 124.202C89.2446 124.174 89.2269 124.111 89.2546 124.062Z" fill="#DD936F"/>
<path d="M88.9414 125.082C88.9661 125.031 89.0277 125.01 89.0789 125.035L89.1713 125.078C89.5664 125.256 89.9907 125.37 90.4168 125.433C90.6799 125.471 90.8906 125.484 91.0217 125.483C91.0801 125.482 91.1269 125.528 91.1277 125.584C91.1283 125.635 91.0925 125.677 91.0445 125.687L91.0261 125.689L90.9827 125.689L90.8904 125.686C90.7576 125.681 90.5862 125.666 90.3867 125.636C89.943 125.571 89.5006 125.452 89.0865 125.265L88.9893 125.22C88.9381 125.195 88.9166 125.134 88.9414 125.082Z" fill="#DD936F"/>
<path d="M88.3498 126.223C88.3745 126.172 88.4361 126.151 88.4874 126.175C88.5969 126.228 88.8555 126.278 89.2071 126.318C89.3869 126.339 89.5799 126.356 89.7729 126.37L89.9595 126.383L90.0298 126.387C90.0866 126.389 90.1303 126.438 90.1274 126.495C90.1245 126.551 90.0761 126.595 90.0193 126.592L89.9471 126.588C89.89 126.585 89.8264 126.58 89.758 126.575C89.5623 126.561 89.3665 126.544 89.1835 126.523L89.0387 126.505C88.7374 126.465 88.5176 126.419 88.3977 126.361C88.3465 126.336 88.325 126.274 88.3498 126.223Z" fill="#DD936F"/>
<path d="M65.8138 118.984L65.8324 118.985L84.1076 121.479C84.164 121.487 84.2035 121.538 84.1958 121.595C84.1889 121.645 84.1471 121.682 84.0983 121.684L84.0798 121.683L65.8045 119.189C65.7481 119.181 65.7087 119.129 65.7164 119.073C65.7232 119.023 65.765 118.986 65.8138 118.984Z" fill="#DD936F"/>
<path d="M84.7315 142.369C84.7917 142.328 84.8737 142.344 84.9148 142.404C84.9513 142.457 84.9432 142.528 84.8987 142.572L84.8803 142.587L80.0522 145.883L74.8133 203.358C74.8073 203.424 74.7548 203.473 74.6915 203.478H74.67C74.6048 203.472 74.555 203.419 74.5505 203.356L74.5507 203.335L79.7953 145.797C79.7982 145.766 79.8121 145.737 79.8342 145.715L79.8522 145.701L84.7315 142.369Z" fill="#A3B5D6"/>
<path d="M73.7698 111.441C73.8092 111.352 73.9131 111.313 74.0018 111.352C74.0831 111.388 74.1234 111.478 74.0992 111.561L74.091 111.584L71.7151 116.923C71.6789 117.004 71.5884 117.045 71.5052 117.02L71.4827 117.012L63.96 113.65C63.8714 113.611 63.8317 113.507 63.8713 113.418C63.9077 113.337 63.9981 113.297 64.0811 113.321L64.1036 113.33L71.4652 116.619L73.7698 111.441Z" fill="#253368"/>
</g>
<defs>
<clipPath id="clip0_444_87726">
<rect width="160" height="200" fill="white" transform="translate(40 24)"/>
</clipPath>
</defs>
</svg>
