<svg width="240" height="208" viewBox="0 0 240 208" fill="none" xmlns="http://www.w3.org/2000/svg">
<path d="M120 184C164.183 184 200 176.389 200 167C200 157.611 164.183 150 120 150C75.8172 150 40 157.611 40 167C40 176.389 75.8172 184 120 184Z" fill="#F5F5F7" fill-opacity="0.6"/>
<path fill-rule="evenodd" clip-rule="evenodd" d="M178.591 167H61.4078C58.422 167 56 163.866 56 160V48.0002C56 44.1336 58.422 41 61.4078 41H178.591C181.578 41 184 44.1336 184 48.0002V160C184 163.866 181.578 167 178.591 167Z" fill="#253368"/>
<path fill-rule="evenodd" clip-rule="evenodd" d="M56 157H184V51H56V157Z" fill="#E4EBF7"/>
<path fill-rule="evenodd" clip-rule="evenodd" d="M81.0758 140C80.4815 140 80 139.462 80 138.799V69.2006C80 68.5376 80.4815 68 81.0758 68H158.924C159.518 68 160 68.5376 160 69.2006V138.799C160 139.462 159.518 140 158.924 140H81.0758Z" fill="white"/>
<path fill-rule="evenodd" clip-rule="evenodd" d="M141.468 104.233C141.468 115.961 131.961 125.467 120.234 125.467C108.507 125.467 99 115.961 99 104.233C99 92.5062 108.507 83 120.234 83C131.961 83 141.468 92.5062 141.468 104.233Z" fill="#597EF7"/>
<path fill-rule="evenodd" clip-rule="evenodd" d="M113.979 96.138V112.33C113.979 113.91 115.736 114.856 117.055 113.986L129.331 105.89C130.521 105.106 130.521 103.361 129.331 102.577L117.055 94.4805C115.736 93.6105 113.979 94.5574 113.979 96.138Z" fill="white"/>
</svg>
