<svg width="16" height="16" viewBox="0 0 16 16" fill="none" xmlns="http://www.w3.org/2000/svg">
<path d="M11.6993 7.99996L9.33268 5.63329L10.2827 4.69996L11.6993 6.11663L14.5327 3.28329L15.466 4.23329L11.6993 7.99996ZM5.99935 7.99996C5.26602 7.99996 4.63824 7.73885 4.11602 7.21663C3.59379 6.6944 3.33268 6.06663 3.33268 5.33329C3.33268 4.59996 3.59379 3.97218 4.11602 3.44996C4.63824 2.92774 5.26602 2.66663 5.99935 2.66663C6.73268 2.66663 7.36046 2.92774 7.88268 3.44996C8.4049 3.97218 8.66602 4.59996 8.66602 5.33329C8.66602 6.06663 8.4049 6.6944 7.88268 7.21663C7.36046 7.73885 6.73268 7.99996 5.99935 7.99996ZM0.666016 13.3333V11.4666C0.666016 11.0888 0.763238 10.7416 0.957682 10.425C1.15213 10.1083 1.41046 9.86663 1.73268 9.69996C2.42157 9.35551 3.12157 9.09718 3.83268 8.92496C4.54379 8.75274 5.26602 8.66663 5.99935 8.66663C6.73268 8.66663 7.4549 8.75274 8.16602 8.92496C8.87713 9.09718 9.57713 9.35551 10.266 9.69996C10.5882 9.86663 10.8466 10.1083 11.041 10.425C11.2355 10.7416 11.3327 11.0888 11.3327 11.4666V13.3333H0.666016ZM1.99935 12H9.99935V11.4666C9.99935 11.3444 9.96879 11.2333 9.90768 11.1333C9.84657 11.0333 9.76602 10.9555 9.66601 10.9C9.06602 10.6 8.46046 10.375 7.84935 10.225C7.23824 10.075 6.62157 9.99996 5.99935 9.99996C5.37713 9.99996 4.76046 10.075 4.14935 10.225C3.53824 10.375 2.93268 10.6 2.33268 10.9C2.23268 10.9555 2.15213 11.0333 2.09102 11.1333C2.0299 11.2333 1.99935 11.3444 1.99935 11.4666V12ZM5.99935 6.66663C6.36602 6.66663 6.6799 6.53607 6.94102 6.27496C7.20213 6.01385 7.33268 5.69996 7.33268 5.33329C7.33268 4.96663 7.20213 4.65274 6.94102 4.39163C6.6799 4.13051 6.36602 3.99996 5.99935 3.99996C5.63268 3.99996 5.31879 4.13051 5.05768 4.39163C4.79657 4.65274 4.66602 4.96663 4.66602 5.33329C4.66602 5.69996 4.79657 6.01385 5.05768 6.27496C5.31879 6.53607 5.63268 6.66663 5.99935 6.66663Z" fill="#2196F3"/>
</svg>
