<svg width="240" height="208" viewBox="0 0 240 208" fill="none" xmlns="http://www.w3.org/2000/svg">
<rect width="160" height="160" transform="translate(40 24)" fill="white"/>
<path d="M185.675 85.3203H54.3877V141.852H185.675V85.3203Z" fill="#253368"/>
<path d="M115.047 37.2436L54.4463 85.3115L182.237 88.6178C182.511 88.6173 182.785 88.5866 183.053 88.5263C184.656 88.1242 185.775 86.9632 185.757 85.3115L123.224 37.0861C120.739 35.4691 117.532 35.6266 115.047 37.2436Z" fill="#253368"/>
<path d="M55.5488 170.964L119.944 136.168" stroke="white" stroke-width="5.4"/>
<path d="M184.654 171.12L120.259 135.852" stroke="white" stroke-width="5.4"/>
<path d="M168.662 77H71.3377C70.5989 77 70 77.6001 70 78.3404V143.66C70 144.4 70.5989 145 71.3377 145H168.662C169.401 145 170 144.4 170 143.66V78.3404C170 77.6001 169.401 77 168.662 77Z" fill="white"/>
<path d="M123.557 135.565C121.388 136.289 119.008 135.983 117.093 134.734L54.2891 85.3125V168.57C54.2891 170.413 56.1053 171.908 58.0471 171.908H182.235C184.18 171.908 185.757 170.413 185.757 168.57V85.3125L125.783 134.339C125.118 134.874 124.365 135.289 123.557 135.565Z" fill="#CCD7EE"/>
<path d="M142.171 87H97.8292C96.819 87 96 87.5998 96 88.3397V90.6603C96 91.4002 96.819 92 97.8292 92H142.171C143.181 92 144 91.4002 144 90.6603V88.3397C144 87.5998 143.181 87 142.171 87Z" fill="#ADC6FF"/>
<path d="M142.171 96.9531H97.8292C96.819 96.9531 96 97.5529 96 98.2929V100.613C96 101.353 96.819 101.953 97.8292 101.953H142.171C143.181 101.953 144 101.353 144 100.613V98.2929C144 97.5529 143.181 96.9531 142.171 96.9531Z" fill="#ADC6FF"/>
</svg>
