<svg width="240" height="208" viewBox="0 0 240 208" fill="none" xmlns="http://www.w3.org/2000/svg">
<g clip-path="url(#clip0_647_4484)">
<rect width="160" height="160" transform="translate(40 24)" fill="white"/>
<path d="M120 184C164.183 184 200 176.389 200 167C200 157.611 164.183 150 120 150C75.8172 150 40 157.611 40 167C40 176.389 75.8172 184 120 184Z" fill="#F5F5F7" fill-opacity="0.8"/>
<path fill-rule="evenodd" clip-rule="evenodd" d="M183.949 56.8625H56.0938V45.4062C56.0938 42.9211 58.1086 40.9062 60.5938 40.9062H179.449C181.934 40.9062 183.949 42.9211 183.949 45.4062V56.8625Z" fill="#253368"/>
<path fill-rule="evenodd" clip-rule="evenodd" d="M179.449 167.169H60.5938C58.1086 167.169 56.0938 165.155 56.0938 162.669V55.5215H183.949V162.669C183.949 165.155 181.934 167.169 179.449 167.169Z" fill="#E4EBF7"/>
<path fill-rule="evenodd" clip-rule="evenodd" d="M66.4842 48.3319C66.4842 49.8916 65.2197 51.1561 63.6599 51.1561C62.1002 51.1561 60.8359 49.8916 60.8359 48.3319C60.8359 46.7723 62.1002 45.5078 63.6599 45.5078C65.2197 45.5078 66.4842 46.7723 66.4842 48.3319Z" fill="#FF7946"/>
<path fill-rule="evenodd" clip-rule="evenodd" d="M77.0309 48.3319C77.0309 49.8916 75.7666 51.1561 74.2067 51.1561C72.6471 51.1561 71.3828 49.8916 71.3828 48.3319C71.3828 46.7723 72.6471 45.5078 74.2067 45.5078C75.7666 45.5078 77.0309 46.7723 77.0309 48.3319Z" fill="#FAAD14"/>
<path fill-rule="evenodd" clip-rule="evenodd" d="M87.5778 48.3319C87.5778 49.8916 86.3134 51.1561 84.7536 51.1561C83.194 51.1561 81.9297 49.8916 81.9297 48.3319C81.9297 46.7723 83.194 45.5078 84.7536 45.5078C86.3134 45.5078 87.5778 46.7723 87.5778 48.3319Z" fill="#7CB305"/>
<path fill-rule="evenodd" clip-rule="evenodd" d="M70.3985 152C69.626 152 69 151.373 69 150.599V69.4007C69 68.6271 69.626 68 70.3985 68H171.601C172.374 68 173 68.6271 173 69.4007V150.599C173 151.373 172.374 152 171.601 152H70.3985Z" fill="white"/>
<path fill-rule="evenodd" clip-rule="evenodd" d="M105.056 80H78.9436C77.8744 80 77 79.1 77 78C77 76.8998 77.8744 76 78.9436 76H105.056C106.125 76 107 76.8998 107 78C107 79.1 106.125 80 105.056 80Z" fill="#E4EBF7"/>
<path fill-rule="evenodd" clip-rule="evenodd" d="M89.8572 88H79.143C77.9596 88 77 87.1045 77 86C77 84.8953 77.9596 84 79.143 84H89.8572C91.0408 84 92 84.8953 92 86C92 87.1045 91.0408 88 89.8572 88Z" fill="#E4EBF7"/>
<path fill-rule="evenodd" clip-rule="evenodd" d="M129 146.014C129 147.106 128.012 148 126.804 148H113.196C111.988 148 111 147.106 111 146.014V96.9864C111 95.8935 111.988 95 113.196 95H126.804C128.012 95 129 95.8935 129 96.9864V146.014Z" fill="#FAAD14"/>
<path fill-rule="evenodd" clip-rule="evenodd" d="M107 145.881C107 147.046 106.012 148 104.804 148H91.1964C89.9884 148 89 147.046 89 145.881V108.118C89 106.953 89.9884 106 91.1964 106H104.804C106.012 106 107 106.953 107 108.118V145.881Z" fill="#597EF7"/>
<path fill-rule="evenodd" clip-rule="evenodd" d="M151 146.184C151 147.182 150.012 148 148.804 148H135.196C133.988 148 133 147.182 133 146.184V113.816C133 112.817 133.988 112 135.196 112H148.804C150.012 112 151 112.817 151 113.816V146.184Z" fill="#FF7946"/>
<path fill-rule="evenodd" clip-rule="evenodd" d="M129 82C129 86.9705 124.971 91 120 91C115.029 91 111 86.9705 111 82C111 77.0295 115.029 73 120 73C124.971 73 129 77.0295 129 82Z" fill="#FAAD14"/>
<path fill-rule="evenodd" clip-rule="evenodd" d="M120.751 78.854L121.3 79.9632C121.414 80.193 121.634 80.3523 121.888 80.3891L123.115 80.5671C123.755 80.6598 124.011 81.4447 123.548 81.8952L122.66 82.7586C122.476 82.9375 122.392 83.1952 122.435 83.4479L122.645 84.667C122.754 85.3031 122.085 85.7882 121.512 85.4878L120.415 84.9123C120.187 84.793 119.915 84.793 119.688 84.9123L118.591 85.4878C118.018 85.7882 117.348 85.3031 117.458 84.667L117.667 83.4479C117.711 83.1952 117.627 82.9375 117.443 82.7586L116.555 81.8952C116.092 81.4447 116.347 80.6598 116.988 80.5671L118.215 80.3891C118.469 80.3523 118.689 80.193 118.803 79.9632L119.351 78.854C119.638 78.2752 120.465 78.2752 120.751 78.854Z" fill="white"/>
</g>
<defs>
<clipPath id="clip0_647_4484">
<rect width="160" height="160" fill="white" transform="translate(40 24)"/>
</clipPath>
</defs>
</svg>
